<?xml version="1.0" encoding="utf-8"?>
<svg viewBox="58.715 50.29 382.57 116.46" width="382.57" height="116.46" xmlns="http://www.w3.org/2000/svg">
  <defs>
    <filter id="editing-extrude-glow">
      <feFlood flood-color="none" result="flood-1"/>
      <feMorphology operator="erode" radius="1" in="SourceAlpha" result="erode"/>
      <feComposite operator="in" in="flood-1" in2="erode" result="comp1"/>
      <feConvolveMatrix order="0,0" divisor="1" in="comp1" result="convolve" kernelMatrix=""/>
      <feOffset dx="0" dy="0" in="convolve" result="extrude"/>
      <feComposite operator="in" in="flood-1" in2="extrude" result="comp-extrude"/>
      <feFlood flood-color="#ffffff" result="flood-2"/>
      <feComposite operator="in" in="flood-2" in2="SourceAlpha" result="comp2"/>
      <feMorphology operator="dilate" radius="1" in="comp2" result="dilate"/>
      <feOffset dx="0" dy="0" in="dilate" result="offset"/>
      <feGaussianBlur in="offset" stdDeviation="5.8" result="blur"/>
      <feComponentTransfer in="blur" result="shadow">
        <feFuncA type="linear" slope="0.8" intercept="-0.2"/>
      </feComponentTransfer>
      <feMerge>
        <feMergeNode in="shadow"/>
        <feMergeNode in="comp-extrude"/>
        <feMergeNode in="SourceGraphic"/>
      </feMerge>
    </filter>
    <style>text {
  font-size: 64px;
  font-family: Arial Black;
  dominant-baseline: central;
  text-anchor: middle;
}</style>
  </defs>
  <g filter="url(#editing-extrude-glow)">
    <g transform="translate(55.58499622344971, 133.2300033569336)">
      <path d="M53.59-26.56L53.59-26.56L53.59-26.56Q55.80-26.56 55.80-21.00L55.80-21.00L55.80-21.00Q55.80-15.43 53.71-11.02L53.71-11.02L53.71-11.02Q51.62-6.61 48.66-4.18L48.66-4.18L48.66-4.18Q45.70-1.74 41.99-0.23L41.99-0.23L41.99-0.23Q29.58 5.22 18.79-0.46L18.79-0.46L18.79-0.46Q13.34-3.36 10.44-7.37L10.44-7.37L10.44-7.37Q7.54-11.37 5.80-16.94L5.80-16.94L5.80-16.94Q3.13-25.29 3.13-34.45L3.13-34.45L3.13-34.45Q3.13-43.62 4.87-51.62L4.87-51.62L4.87-51.62Q6.61-59.62 10.21-66.87L10.21-66.87L10.21-66.87Q13.80-74.12 20.42-78.53L20.42-78.53L20.42-78.53Q27.03-82.94 35.73-82.94L35.73-82.94L35.73-82.94Q39.44-82.94 43.44-81.72L43.44-81.72L43.44-81.72Q47.44-80.50 50.00-78.71L50.00-78.71L50.00-78.71Q52.55-76.91 54.52-73.20L54.52-73.20L54.52-73.20Q56.49-69.48 56.49-64.50L56.49-64.50L56.49-64.50Q56.49-59.16 53.94-54.87L53.94-54.87L53.94-54.87Q52.78-52.90 50.23-51.33L50.23-51.33L50.23-51.33Q47.68-49.76 44.20-49.76L44.20-49.76L44.20-49.76Q38.86-49.76 36.66-54.52L36.66-54.52L36.66-54.52Q35.73-56.38 35.73-58.58L35.73-58.58L35.73-58.58Q35.73-60.78 37.24-61.13L37.24-61.13L37.24-61.13Q38.86-61.60 40.25-63.68L40.25-63.68L40.25-63.68Q41.64-65.77 41.64-68.56L41.64-68.56L41.64-68.56Q41.64-70.76 40.48-72.38L40.48-72.38L40.48-72.38Q38.28-75.28 34.10-75.28L34.10-75.28L34.10-75.28Q29.93-75.28 26.51-71.46L26.51-71.46L26.51-71.46Q23.08-67.63 21.34-61.83L21.34-61.83L21.34-61.83Q17.86-50.23 17.86-40.48L17.86-40.48L17.86-40.48Q17.86-30.74 20.53-24.82L20.53-24.82L20.53-24.82Q23.78-17.52 28.77-15.08L28.77-15.08L28.77-15.08Q31.90-13.57 35.96-13.57L35.96-13.57L35.96-13.57Q42.80-13.57 48.26-19.72L48.26-19.72L48.26-19.72Q50.58-22.16 52.08-25.52L52.08-25.52L52.08-25.52Q52.66-26.56 53.59-26.56ZM77.14-62.29L77.14-62.29L77.02-51.04L77.02-51.04Q77.02-50.34 77.49-50.34L77.49-50.34L77.49-50.34Q77.95-50.34 78.42-50.69L78.42-50.69L78.42-50.69Q81.32-52.66 87.58-52.66L87.58-52.66L87.58-52.66Q98.14-52.66 102.20-45.47L102.20-45.47L102.20-45.47Q103.70-42.80 103.70-38.40L103.70-38.40L103.70-38.40Q103.70-33.99 103.18-26.22L103.18-26.22L103.18-26.22Q102.66-18.44 102.66-15.20L102.66-15.20L102.66-15.20Q102.66-3.83 105.91-0.12L105.91-0.12L105.91-0.12Q106.49 0.46 106.49 1.04L106.49 1.04L106.49 1.04Q106.49 2.20 101.50 2.20L101.50 2.20L101.50 2.20Q88.04 2.20 88.04-10.32L88.04-10.32L88.04-10.32Q88.04-15.20 90.36-24.01L90.36-24.01L90.36-24.01Q92.68-32.83 92.68-37.00L92.68-37.00L92.68-37.00Q92.68-41.18 90.71-43.44L90.71-43.44L90.71-43.44Q88.74-45.70 85.26-45.70L85.26-45.70L85.26-45.70Q81.78-45.70 79.75-44.20L79.75-44.20L79.75-44.20Q77.72-42.69 77.26-41.06L77.26-41.06L76.91-39.56L76.91-39.56Q76.79-37.35 76.79-25.52L76.79-25.52L76.79-25.52Q76.79-13.69 77.37-10.15L77.37-10.15L77.37-10.15Q77.95-6.61 77.95-6.15L77.95-6.15L77.95-6.15Q77.95-2.78 73.43-0.17L73.43-0.17L73.43-0.17Q68.90 2.44 64.50 2.44L64.50 2.44L64.50 2.44Q62.87 2.44 62.87 0.58L62.87 0.58L63.10-1.62L63.10-1.62Q65.66-21.11 65.66-43.85L65.66-43.85L65.66-43.85Q65.66-52.66 64.96-61.71L64.96-61.71L64.84-64.26L64.84-64.26Q64.61-67.51 63.51-69.83L63.51-69.83L63.51-69.83Q62.41-72.15 61.48-72.85L61.48-72.85L60.44-73.43L60.44-73.43Q59.62-73.89 59.62-74.47L59.62-74.47L59.62-74.47Q59.62-76.10 65.08-78.47L65.08-78.47L65.08-78.47Q70.53-80.85 73.49-80.85L73.49-80.85L73.49-80.85Q76.44-80.85 76.68-79.58L76.68-79.58L76.68-79.58Q77.14-73.66 77.14-62.29ZM148.71-34.80L148.71-34.80L148.48-19.95L148.48-19.95Q148.48-4.52 151.84-1.39L151.84-1.39L151.84-1.39Q152.31-0.93 152.31-0.35L152.31-0.35L152.31-0.35Q152.31 1.39 144.83 1.39L144.83 1.39L144.83 1.39Q137.34 1.39 136.88-3.02L136.88-3.02L136.88-3.02Q136.76-4.06 136.76-7.31L136.76-7.31L137.23-25.87L137.23-25.87Q137.23-26.68 136.30-26.68L136.30-26.68L136.30-26.68Q130.73-26.68 125.86-23.55L125.86-23.55L125.86-23.55Q120.99-20.42 120.99-15.54L120.99-15.54L120.99-15.54Q120.99-12.99 122.38-11.25L122.38-11.25L122.38-11.25Q123.77-9.51 125.80-9.51L125.80-9.51L125.80-9.51Q127.83-9.51 129.17-10.32L129.17-10.32L129.17-10.32Q130.50-11.14 130.73-11.25L130.73-11.25L130.73-11.25Q132.70-11.02 132.70-7.13L132.70-7.13L132.70-7.13Q132.70-3.25 129.11-0.87L129.11-0.87L129.11-0.87Q125.51 1.51 121.57 1.51L121.57 1.51L121.57 1.51Q117.62 1.51 114.78 0.12L114.78 0.12L114.78 0.12Q111.94-1.28 110.66-3.02L110.66-3.02L110.66-3.02Q109.39-4.76 108.58-6.96L108.58-6.96L108.58-6.96Q107.76-9.63 107.76-11.60L107.76-11.60L107.76-11.60Q107.76-19.72 112.87-24.59L112.87-24.59L112.87-24.59Q117.97-29.46 125.98-31.55L125.98-31.55L125.98-31.55Q136.53-33.64 137.00-35.38L137.00-35.38L137.00-35.38Q137.34-36.66 137.34-39.67L137.34-39.67L137.34-39.67Q137.34-45.82 131.08-45.82L131.08-45.82L131.08-45.82Q128.41-45.82 126.32-44.14L126.32-44.14L126.32-44.14Q124.24-42.46 124.24-39.90L124.24-39.90L124.93-37.12L124.93-37.12Q124.70-35.15 120.76-34.80L120.76-34.80L119.48-34.68L119.48-34.68Q116-34.68 113.97-36.42L113.97-36.42L113.97-36.42Q111.94-38.16 111.94-41.06L111.94-41.06L111.94-41.06Q111.94-42.92 113.16-45.18L113.16-45.18L113.16-45.18Q114.38-47.44 116.23-48.84L116.23-48.84L116.23-48.84Q118.09-50.23 121.97-51.33L121.97-51.33L121.97-51.33Q125.86-52.43 129.46-52.43L129.46-52.43L129.46-52.43Q133.05-52.43 135.02-52.20L135.02-52.20L135.02-52.20Q137.00-51.97 140.42-51.10L140.42-51.10L140.42-51.10Q143.84-50.23 146.10-47.79L146.10-47.79L146.10-47.79Q148.36-45.36 148.54-42.63L148.54-42.63L148.54-42.63Q148.71-39.90 148.71-34.80ZM167.74-62.06L167.74-62.06L164.95-62.18L164.95-62.18Q161.82-62.18 160.89-60.67L160.89-60.67L160.89-60.67Q160.66-60.32 160.31-60.32L160.31-60.32L160.31-60.32Q158.80-60.32 158.80-65.48L158.80-65.48L158.80-65.48Q158.80-70.64 160.37-72.04L160.37-72.04L160.37-72.04Q161.94-73.43 165.82-73.43L165.82-73.43L165.82-73.43Q169.71-73.43 171.10-72.09L171.10-72.09L171.10-72.09Q172.49-70.76 172.49-67.63L172.49-67.63L172.49-67.63Q172.49-64.50 171.45-63.28L171.45-63.28L171.45-63.28Q170.40-62.06 167.74-62.06ZM158.46-3.48L158.46-3.48L159.73-30.51L159.73-30.51Q159.73-40.14 157.53-43.62L157.53-43.62L157.53-43.62Q156.83-44.78 155.90-45.36L155.90-45.36L155.90-45.36Q155.21-45.59 155.21-46.28L155.21-46.28L155.21-46.28Q155.21-48.37 161.12-50.34L161.12-50.34L161.12-50.34Q167.04-52.32 169.77-52.32L169.77-52.32L169.77-52.32Q172.49-52.32 172.61-50.92L172.61-50.92L172.61-50.92Q172.61-48.60 171.97-37.76L171.97-37.76L171.97-37.76Q171.33-26.91 171.33-14.96L171.33-14.96L171.33-14.96Q171.33-3.02 172.72-0.12L172.72-0.12L172.72-0.12Q173.07 0.46 173.07 1.04L173.07 1.04L173.07 1.04Q173.07 2.55 168.66 2.55L168.66 2.55L168.66 2.55Q164.26 2.55 159.62 0.23L159.62 0.23L159.62 0.23Q158.46-0.35 158.46-3.48ZM178.41-45.24L178.41-45.24L178.76-49.88L178.76-49.88Q178.87-50.92 180.38-50.92L180.38-50.92L184.44-50.92L183.98-60.20L183.98-60.67L183.98-60.67Q183.98-63.34 188.04-65.77L188.04-65.77L188.04-65.77Q192.10-68.21 195.46-68.21L195.46-68.21L195.46-68.21Q196.50-68.21 196.50-67.28L196.50-67.28L196.50-67.16L196.50-67.16Q196.04-64.03 195.58-51.04L195.58-51.04L195.58-51.04Q200.68-51.04 202.07-51.27L202.07-51.27L202.07-51.27Q203.46-51.50 203.58-51.50L203.58-51.50L203.58-51.50Q204.39-51.50 204.39-50.11L204.39-50.11L204.39-50.11Q204.39-48.72 203.12-46.57L203.12-46.57L203.12-46.57Q201.84-44.43 200.33-44.31L200.33-44.31L195.46-44.31L195.46-44.31Q195.34-40.37 195.34-31.03L195.34-31.03L195.34-31.03Q195.34-21.69 195.52-15.66L195.52-15.66L195.52-15.66Q195.69-9.63 195.92-6.55L195.92-6.55L195.92-6.55Q196.16-3.48 196.45-1.62L196.45-1.62L196.45-1.62Q196.74 0.23 196.91 1.04L196.91 1.04L196.91 1.04Q197.08 1.86 197.08 2.09L197.08 2.09L197.08 2.09Q197.08 3.25 195.58 3.36L195.58 3.36L195.58 3.36Q191.05 3.36 186.59 2.09L186.59 2.09L186.59 2.09Q182.12 0.81 182.12-2.32L182.12-2.32L182.12-2.32Q184.56-21.81 184.56-44.20L184.56-44.20L184.56-44.20Q181.42-44.20 179.80-43.96L179.80-43.96L179.68-43.96L179.68-43.96Q178.64-43.96 178.41-45.24ZM244.88-34.80L244.88-34.80L244.64-19.95L244.64-19.95Q244.64-4.52 248.01-1.39L248.01-1.39L248.01-1.39Q248.47-0.93 248.47-0.35L248.47-0.35L248.47-0.35Q248.47 1.39 240.99 1.39L240.99 1.39L240.99 1.39Q233.51 1.39 233.04-3.02L233.04-3.02L233.04-3.02Q232.93-4.06 232.93-7.31L232.93-7.31L233.39-25.87L233.39-25.87Q233.39-26.68 232.46-26.68L232.46-26.68L232.46-26.68Q226.90-26.68 222.02-23.55L222.02-23.55L222.02-23.55Q217.15-20.42 217.15-15.54L217.15-15.54L217.15-15.54Q217.15-12.99 218.54-11.25L218.54-11.25L218.54-11.25Q219.94-9.51 221.97-9.51L221.97-9.51L221.97-9.51Q224.00-9.51 225.33-10.32L225.33-10.32L225.33-10.32Q226.66-11.14 226.90-11.25L226.90-11.25L226.90-11.25Q228.87-11.02 228.87-7.13L228.87-7.13L228.87-7.13Q228.87-3.25 225.27-0.87L225.27-0.87L225.27-0.87Q221.68 1.51 217.73 1.51L217.73 1.51L217.73 1.51Q213.79 1.51 210.95 0.12L210.95 0.12L210.95 0.12Q208.10-1.28 206.83-3.02L206.83-3.02L206.83-3.02Q205.55-4.76 204.74-6.96L204.74-6.96L204.74-6.96Q203.93-9.63 203.93-11.60L203.93-11.60L203.93-11.60Q203.93-19.72 209.03-24.59L209.03-24.59L209.03-24.59Q214.14-29.46 222.14-31.55L222.14-31.55L222.14-31.55Q232.70-33.64 233.16-35.38L233.16-35.38L233.16-35.38Q233.51-36.66 233.51-39.67L233.51-39.67L233.51-39.67Q233.51-45.82 227.24-45.82L227.24-45.82L227.24-45.82Q224.58-45.82 222.49-44.14L222.49-44.14L222.49-44.14Q220.40-42.46 220.40-39.90L220.40-39.90L221.10-37.12L221.10-37.12Q220.86-35.15 216.92-34.80L216.92-34.80L215.64-34.68L215.64-34.68Q212.16-34.68 210.13-36.42L210.13-36.42L210.13-36.42Q208.10-38.16 208.10-41.06L208.10-41.06L208.10-41.06Q208.10-42.92 209.32-45.18L209.32-45.18L209.32-45.18Q210.54-47.44 212.40-48.84L212.40-48.84L212.40-48.84Q214.25-50.23 218.14-51.33L218.14-51.33L218.14-51.33Q222.02-52.43 225.62-52.43L225.62-52.43L225.62-52.43Q229.22-52.43 231.19-52.20L231.19-52.20L231.19-52.20Q233.16-51.97 236.58-51.10L236.58-51.10L236.58-51.10Q240.00-50.23 242.27-47.79L242.27-47.79L242.27-47.79Q244.53-45.36 244.70-42.63L244.70-42.63L244.70-42.63Q244.88-39.90 244.88-34.80ZM251.95 0.81L251.95 0.81L251.95 0.81Q254.04-11.72 254.04-29.23L254.04-29.23L254.04-29.23Q254.04-46.75 253.00-51.97L253.00-51.97L253.00-51.97Q253.00-53.48 256.48-53.48L256.48-53.48L256.48-53.48Q261.81-53.48 263.55-49.42L263.55-49.42L263.55-49.42Q263.67-49.07 264.13-49.07L264.13-49.07L264.13-49.07Q264.60-49.07 264.83-49.30L264.83-49.30L264.83-49.30Q268.42-53.01 275.96-53.01L275.96-53.01L275.96-53.01Q283.50-53.01 287.91-49.18L287.91-49.18L287.91-49.18Q292.32-45.36 292.32-38.05L292.32-38.05L292.32-38.05Q292.32-33.64 291.57-25.52L291.57-25.52L291.57-25.52Q290.81-17.40 290.81-13.46L290.81-13.46L290.81-13.46Q290.81-4.06 293.94 0.12L293.94 0.12L293.94 0.12Q294.41 0.70 294.41 1.28L294.41 1.28L294.41 1.28Q294.41 2.78 291.16 2.78L291.16 2.78L291.16 2.78Q276.78 2.78 276.78-9.98L276.78-9.98L276.78-9.98Q276.78-14.85 278.98-23.55L278.98-23.55L278.98-23.55Q281.18-32.25 281.18-36.77L281.18-36.77L281.18-36.77Q281.18-46.05 273.53-46.05L273.53-46.05L273.53-46.05Q269.82-46.05 267.90-43.85L267.90-43.85L267.90-43.85Q265.99-41.64 265.76-38.80L265.76-38.80L265.76-38.80Q265.52-35.96 265.52-28.07L265.52-28.07L265.52-28.07Q265.52-16.01 266.34-7.08L266.34-7.08L266.57-4.52L266.57-4.52Q266.57-1.28 262.33 0.52L262.33 0.52L262.33 0.52Q258.10 2.32 255.03 2.32L255.03 2.32L255.03 2.32Q251.95 2.32 251.95 0.81ZM318.77 32.13L318.77 32.13L318.77 32.13Q318.77 33.52 317.38 33.52L317.38 33.52L317.26 33.52L317.26 33.52Q313.43 33.52 308.62 30.86L308.62 30.86L308.62 30.86Q303.80 28.19 303.80 24.71L303.80 24.71L303.80 24.71Q303.80 21.23 308.21 12.59L308.21 12.59L308.21 12.59Q312.62 3.94 312.62 1.04L312.62 1.04L312.62 1.04Q312.62-2.09 309.60-10.21L309.60-10.21L309.60-10.21Q305.78-20.76 303.51-27.38L303.51-27.38L303.51-27.38Q301.25-33.99 298.64-39.03L298.64-39.03L298.64-39.03Q296.03-44.08 294.87-45.01L294.87-45.01L293.71-45.82L293.71-45.82Q292.44-46.52 292.44-47.33L292.44-47.33L292.44-47.33Q292.44-48.95 297.48-50.63L297.48-50.63L297.48-50.63Q302.53-52.32 306.36-52.32L306.36-52.32L306.36-52.32Q308.10-52.32 309.26-49.53L309.26-49.53L309.26-49.53Q311.34-44.08 313.78-34.45L313.78-34.45L313.78-34.45Q319.70-14.73 321.20-14.73L321.20-14.73L321.20-14.73Q322.25-14.73 325.44-22.85L325.44-22.85L325.44-22.85Q328.63-30.97 328.63-35.96L328.63-35.96L328.63-35.96Q328.63-44.66 323.52-46.17L323.52-46.17L323.52-46.17Q322.36-46.40 322.36-47.33L322.36-47.33L322.36-47.33Q322.36-49.42 327.82-51.33L327.82-51.33L327.82-51.33Q333.27-53.24 337.68-53.24L337.68-53.24L337.68-53.24Q341.50-53.24 341.50-48.26L341.50-48.26L341.50-48.26Q341.50-44.43 339.88-39.32L339.88-39.32L339.88-39.32Q338.26-34.22 336.86-31.26L336.86-31.26L336.86-31.26Q335.47-28.30 329.96-17.57L329.96-17.57L329.96-17.57Q324.45-6.84 320.86 1.28L320.86 1.28L320.86 1.28Q316.91 11.02 316.91 21.11L316.91 21.11L316.91 21.11Q316.91 26.45 317.84 29.12L317.84 29.12L317.84 29.12Q318.77 31.78 318.77 32.13ZM382.10-34.80L382.10-34.80L381.87-19.95L381.87-19.95Q381.87-4.52 385.24-1.39L385.24-1.39L385.24-1.39Q385.70-0.93 385.70-0.35L385.70-0.35L385.70-0.35Q385.70 1.39 378.22 1.39L378.22 1.39L378.22 1.39Q370.74 1.39 370.27-3.02L370.27-3.02L370.27-3.02Q370.16-4.06 370.16-7.31L370.16-7.31L370.62-25.87L370.62-25.87Q370.62-26.68 369.69-26.68L369.69-26.68L369.69-26.68Q364.12-26.68 359.25-23.55L359.25-23.55L359.25-23.55Q354.38-20.42 354.38-15.54L354.38-15.54L354.38-15.54Q354.38-12.99 355.77-11.25L355.77-11.25L355.77-11.25Q357.16-9.51 359.19-9.51L359.19-9.51L359.19-9.51Q361.22-9.51 362.56-10.32L362.56-10.32L362.56-10.32Q363.89-11.14 364.12-11.25L364.12-11.25L364.12-11.25Q366.10-11.02 366.10-7.13L366.10-7.13L366.10-7.13Q366.10-3.25 362.50-0.87L362.50-0.87L362.50-0.87Q358.90 1.51 354.96 1.51L354.96 1.51L354.96 1.51Q351.02 1.51 348.17 0.12L348.17 0.12L348.17 0.12Q345.33-1.28 344.06-3.02L344.06-3.02L344.06-3.02Q342.78-4.76 341.97-6.96L341.97-6.96L341.97-6.96Q341.16-9.63 341.16-11.60L341.16-11.60L341.16-11.60Q341.16-19.72 346.26-24.59L346.26-24.59L346.26-24.59Q351.36-29.46 359.37-31.55L359.37-31.55L359.37-31.55Q369.92-33.64 370.39-35.38L370.39-35.38L370.39-35.38Q370.74-36.66 370.74-39.67L370.74-39.67L370.74-39.67Q370.74-45.82 364.47-45.82L364.47-45.82L364.47-45.82Q361.80-45.82 359.72-44.14L359.72-44.14L359.72-44.14Q357.63-42.46 357.63-39.90L357.63-39.90L358.32-37.12L358.32-37.12Q358.09-35.15 354.15-34.80L354.15-34.80L352.87-34.68L352.87-34.68Q349.39-34.68 347.36-36.42L347.36-36.42L347.36-36.42Q345.33-38.16 345.33-41.06L345.33-41.06L345.33-41.06Q345.33-42.92 346.55-45.18L346.55-45.18L346.55-45.18Q347.77-47.44 349.62-48.84L349.62-48.84L349.62-48.84Q351.48-50.23 355.37-51.33L355.37-51.33L355.37-51.33Q359.25-52.43 362.85-52.43L362.85-52.43L362.85-52.43Q366.44-52.43 368.42-52.20L368.42-52.20L368.42-52.20Q370.39-51.97 373.81-51.10L373.81-51.10L373.81-51.10Q377.23-50.23 379.49-47.79L379.49-47.79L379.49-47.79Q381.76-45.36 381.93-42.63L381.93-42.63L381.93-42.63Q382.10-39.90 382.10-34.80Z" fill="#3d4163"/>
    </g>
  </g>
</svg>