<?xml version="1.0" encoding="utf-8"?>
<svg xmlns="http://www.w3.org/2000/svg" style="margin: auto; display: block; shape-rendering: auto; background: none;" width="280" height="250" preserveAspectRatio="xMidYMid">
<style type="text/css">
  text {
    text-anchor: middle; font-size: 80px; opacity: 0;
  }
</style>
<g style="transform-origin:140px 125px;transform:scale(1)">
<g transform="translate(140,125)">
  <g transform="translate(0,0)"><g class="path" style="transform: matrix(1, 0, 0, 1, 0, 14.925); opacity: 0.05; transform-origin: -130.8px -1.66208px; animation: 1s linear 0s 1 normal forwards running float-btt-in-e74ba304-f34b-4016-8964-a21a69a74b68;"><path d="M16.80-10.88L16.80-10.88L16.80-10.88Q16.80 1.12 24.56 4.96L24.56 4.96L24.56 4.96Q26.48 5.20 29.64 5.20L29.64 5.20L29.64 5.20Q32.80 5.20 36.32 4L36.32 4L36.32 4Q39.84 2.80 41.76 1.04L41.76 1.04L41.76 1.04Q45.84-2.72 46.88-5.44L46.88-5.44L47.28-6.64L48.88-6L48.88-6Q48.32-4.16 46.72-1.76L46.72-1.76L46.72-1.76Q45.12 0.64 43.08 2.32L43.08 2.32L43.08 2.32Q41.04 4 37.16 5.40L37.16 5.40L37.16 5.40Q33.28 6.80 28.56 6.80L28.56 6.80L28.56 6.80Q18.48 6.80 12.92 0.96L12.92 0.96L12.92 0.96Q7.36-4.88 7.36-15.52L7.36-15.52L7.36-15.52Q7.36-30 16.72-39.36L16.72-39.36L16.72-39.36Q26.08-48.72 41.28-48.72L41.28-48.72L41.28-48.72Q48.32-48.72 51.44-46.20L51.44-46.20L51.44-46.20Q54.56-43.68 54.56-38.32L54.56-38.32L54.56-38.32Q54.56-34.72 51.04-29.44L51.04-29.44L51.04-29.44Q47.84-24.32 47.84-21.44L47.84-21.44L46.08-21.44L46.08-21.44Q46.08-23.04 46.72-24.88L46.72-24.88L46.72-24.88Q47.36-26.72 47.84-27.52L47.84-27.52L47.84-27.52Q48.32-28.32 49.60-30.40L49.60-30.40L49.60-30.40Q52.72-35.12 52.72-38.16L52.72-38.16L52.72-38.16Q52.72-44.56 47.44-46.24L47.44-46.24L47.44-46.24Q44.96-47.04 42.24-47.04L42.24-47.04L42.24-47.04Q39.52-47.04 36.48-46.72L36.48-46.72L36.48-46.72Q33.68-45.84 31.16-44.44L31.16-44.44L31.16-44.44Q28.64-43.04 25.92-40.20L25.92-40.20L25.92-40.20Q23.20-37.36 21.28-33.60L21.28-33.60L21.28-33.60Q19.36-29.84 18.08-23.96L18.08-23.96L18.08-23.96Q16.80-18.08 16.80-10.88" fill="#b8ac2e" stroke="none" stroke-width="none" transform="translate(-161.760009765625,19.297918701171874)" style="fill: rgb(184, 172, 46);"></path></g><g class="path" style="transform: matrix(1, 0, 0, 1, 0, 14.925); opacity: 0.05; transform-origin: -88.32px -6.26208px; animation: 1s linear 0.066s 1 normal forwards running float-btt-in-e74ba304-f34b-4016-8964-a21a69a74b68;"><path d="M86.24-0.88L86.24-0.88L86.24-0.88Q88.16-0.88 90.24-3.12L90.24-3.12L91.44-2.16L91.44-2.16Q90.88-1.04 88.96-0.16L88.96-0.16L88.96-0.16Q87.04 0.72 84.72 0.72L84.72 0.72L84.72 0.72Q77.44 0.72 77.44-5.84L77.44-5.84L77.44-5.84Q77.44-8.64 78.88-15.84L78.88-15.84L78.88-15.84Q80.32-23.04 80.32-25.28L80.32-25.28L80.32-25.28Q80.32-28.72 77.04-28.72L77.04-28.72L77.04-28.72Q74.32-28.72 71.80-25.04L71.80-25.04L71.80-25.04Q69.28-21.36 67.68-15.04L67.68-15.04L65.04 0L55.44 0L64.32-50.24L64.32-50.24Q61.92-50 60.32-48L60.32-48L59.12-48.96L59.12-48.96Q61.52-51.84 65.16-51.84L65.16-51.84L65.16-51.84Q68.80-51.84 70.80-50L70.80-50L70.80-50Q72.80-48.16 72.80-44.80L72.80-44.80L72.80-44.80Q72.80-44.16 72.64-42.72L72.64-42.72L69.28-23.76L69.28-23.76Q72.56-31.12 79.44-31.12L79.44-31.12L79.44-31.12Q84.16-31.12 86.80-28.44L86.80-28.44L86.80-28.44Q89.44-25.76 89.44-21.04L89.44-21.04L89.44-21.04Q89.44-18.56 87.92-11.48L87.92-11.48L87.92-11.48Q86.40-4.40 86.24-0.88" fill="#b8ac2e" stroke="none" stroke-width="none" transform="translate(-161.760009765625,19.297918701171874)" style="fill: rgb(184, 172, 46);"></path></g><g class="path" style="transform: matrix(1, 0, 0, 1, 0, 14.925); opacity: 0.05; transform-origin: -49.28px 4.09792px; animation: 1s linear 0.132s 1 normal forwards running float-btt-in-e74ba304-f34b-4016-8964-a21a69a74b68;"><path d="M123.44 0.72L123.44 0.72L123.44 0.72Q116.40 0.72 115.76-5.44L115.76-5.44L115.76-5.44Q112.24 0.72 106.88 0.72L106.88 0.72L106.88 0.72Q101.52 0.72 98.36-2.52L98.36-2.52L98.36-2.52Q95.20-5.76 95.20-11.60L95.20-11.60L95.20-11.60Q95.20-20.72 99.68-25.92L99.68-25.92L99.68-25.92Q104.16-31.12 111.28-31.12L111.28-31.12L111.28-31.12Q117.12-31.12 119.04-25.60L119.04-25.60L119.04-25.60Q119.44-28 119.92-30.40L119.92-30.40L119.92-30.40Q125.84-30.40 128.72-30.88L128.72-30.88L129.76-31.12L124.24-0.88L124.24-0.88Q126.64-1.12 128.24-3.12L128.24-3.12L129.44-2.16L129.44-2.16Q127.04 0.72 123.44 0.72zM104.24-7.52L104.24-7.52Q104.24-3.92 105.16-2.52L105.16-2.52L105.16-2.52Q106.08-1.12 108-1.12L108-1.12L108-1.12Q109.92-1.12 111.92-3.20L111.92-3.20L111.92-3.20Q114.56-5.92 116.16-10.08L116.16-10.08L116.16-10.08Q116.40-11.12 117.08-15.08L117.08-15.08L117.08-15.08Q117.76-19.04 118.24-21.60L118.24-21.60L118.24-21.60Q118-24.64 116.56-26.88L116.56-26.88L116.56-26.88Q115.12-29.12 112.96-29.12L112.96-29.12L112.96-29.12Q109.04-29.12 106.64-22.12L106.64-22.12L106.64-22.12Q104.24-15.12 104.24-7.52L104.24-7.52" fill="#b8ac2e" stroke="none" stroke-width="none" transform="translate(-161.760009765625,19.297918701171874)" style="fill: rgb(184, 172, 46);"></path></g><g class="path" style="transform: matrix(1, 0, 0, 1, 0, 14.925); opacity: 0.05; transform-origin: -19.72px 4.09792px; animation: 1s linear 0.198s 1 normal forwards running float-btt-in-e74ba304-f34b-4016-8964-a21a69a74b68;"><path d="M148.72-2.16L148.72-2.16Q146.32 0.72 142.72 0.72L142.72 0.72L142.72 0.72Q139.12 0.72 137.08-1.12L137.08-1.12L137.08-1.12Q135.04-2.96 135.04-5.92L135.04-5.92L135.04-5.92Q135.04-6.96 136.32-14.64L136.32-14.64L138.96-28.96L135.60-28.96L135.76-30.40L139.20-30.40L139.20-30.40Q145.12-30.40 147.92-30.88L147.92-30.88L149.04-31.12L143.52-0.88L143.52-0.88Q145.92-1.12 147.52-3.12L147.52-3.12L148.72-2.16" fill="#b8ac2e" stroke="none" stroke-width="none" transform="translate(-161.760009765625,19.297918701171874)" style="fill: rgb(184, 172, 46);"></path></g><g class="path" style="transform: matrix(1, 0, 0, 1, 0, 14.925); opacity: 0.05; transform-origin: -15.96px -23.6221px; animation: 1s linear 0.264s 1 normal forwards running float-btt-in-e74ba304-f34b-4016-8964-a21a69a74b68;"><path d="M141.68-38.80L141.68-38.80L141.68-38.80Q140-40.48 140-42.88L140-42.88L140-42.88Q140-45.28 141.68-47L141.68-47L141.68-47Q143.36-48.72 145.76-48.72L145.76-48.72L145.76-48.72Q148.16-48.72 149.88-47L149.88-47L149.88-47Q151.60-45.28 151.60-42.88L151.60-42.88L151.60-42.88Q151.60-40.48 149.88-38.80L149.88-38.80L149.88-38.80Q148.16-37.12 145.76-37.12L145.76-37.12L145.76-37.12Q143.36-37.12 141.68-38.80" fill="#b8ac2e" stroke="none" stroke-width="none" transform="translate(-161.760009765625,19.297918701171874)" style="fill: rgb(184, 172, 46);"></path></g><g class="path" style="transform: matrix(1, 0, 0, 1, 0, 14.925); opacity: 0.05; transform-origin: 4.07999px -1.82208px; animation: 1s linear 0.33s 1 normal forwards running float-btt-in-e74ba304-f34b-4016-8964-a21a69a74b68;"><path d="M154.16-30.40L158.24-30.40L160.40-42.24L160.40-42.24Q166.32-42.24 169.20-42.72L169.20-42.72L170.24-42.96L170.24-42.96Q169.12-37.36 167.76-30.40L167.76-30.40L177.68-30.40L177.52-28.96L167.52-28.96L167.52-28.96Q163.52-8.32 163.52-4.08L163.52-4.08L163.52-4.08Q163.52-1.52 166.24-1.52L166.24-1.52L166.24-1.52Q168.96-1.52 171.20-4.96L171.20-4.96L171.20-4.96Q173.44-8.40 174.40-12.40L174.40-12.40L175.84-11.92L175.84-11.92Q172.88 0.72 163.60 0.72L163.60 0.72L163.60 0.72Q159.76 0.72 157.20-1.40L157.20-1.40L157.20-1.40Q154.64-3.52 154.64-7.32L154.64-7.32L154.64-7.32Q154.64-11.12 157.92-28.96L157.92-28.96L154-28.96L154.16-30.40" fill="#b8ac2e" stroke="none" stroke-width="none" transform="translate(-161.760009765625,19.297918701171874)" style="fill: rgb(184, 172, 46);"></path></g><g class="path" style="transform: matrix(1, 0, 0, 1, 0, 14.925); opacity: 0.05; transform-origin: 34.56px 4.09792px; animation: 1s linear 0.396s 1 normal forwards running float-btt-in-e74ba304-f34b-4016-8964-a21a69a74b68;"><path d="M207.28 0.72L207.28 0.72L207.28 0.72Q200.24 0.72 199.60-5.44L199.60-5.44L199.60-5.44Q196.08 0.72 190.72 0.72L190.72 0.72L190.72 0.72Q185.36 0.72 182.20-2.52L182.20-2.52L182.20-2.52Q179.04-5.76 179.04-11.60L179.04-11.60L179.04-11.60Q179.04-20.72 183.52-25.92L183.52-25.92L183.52-25.92Q188-31.12 195.12-31.12L195.12-31.12L195.12-31.12Q200.96-31.12 202.88-25.60L202.88-25.60L202.88-25.60Q203.28-28 203.76-30.40L203.76-30.40L203.76-30.40Q209.68-30.40 212.56-30.88L212.56-30.88L213.60-31.12L208.08-0.88L208.08-0.88Q210.48-1.12 212.08-3.12L212.08-3.12L213.28-2.16L213.28-2.16Q210.88 0.72 207.28 0.72zM188.08-7.52L188.08-7.52Q188.08-3.92 189-2.52L189-2.52L189-2.52Q189.92-1.12 191.84-1.12L191.84-1.12L191.84-1.12Q193.76-1.12 195.76-3.20L195.76-3.20L195.76-3.20Q198.40-5.92 200-10.08L200-10.08L200-10.08Q200.24-11.12 200.92-15.08L200.92-15.08L200.92-15.08Q201.60-19.04 202.08-21.60L202.08-21.60L202.08-21.60Q201.84-24.64 200.40-26.88L200.40-26.88L200.40-26.88Q198.96-29.12 196.80-29.12L196.80-29.12L196.80-29.12Q192.88-29.12 190.48-22.12L190.48-22.12L190.48-22.12Q188.08-15.12 188.08-7.52L188.08-7.52" fill="#b8ac2e" stroke="none" stroke-width="none" transform="translate(-161.760009765625,19.297918701171874)" style="fill: rgb(184, 172, 46);"></path></g><g class="path" style="transform: matrix(1, 0, 0, 1, 0, 14.925); opacity: 0.05; transform-origin: 74.2px 4.09792px; animation: 1s linear 0.462s 1 normal forwards running float-btt-in-e74ba304-f34b-4016-8964-a21a69a74b68;"><path d="M248.72-0.88L248.72-0.88L248.72-0.88Q250.64-0.88 252.72-3.12L252.72-3.12L253.92-2.16L253.92-2.16Q253.36-1.04 251.44-0.16L251.44-0.16L251.44-0.16Q249.52 0.72 247.20 0.72L247.20 0.72L247.20 0.72Q239.92 0.72 239.92-5.84L239.92-5.84L239.92-5.84Q239.92-8.64 241.36-15.84L241.36-15.84L241.36-15.84Q242.80-23.04 242.80-25.28L242.80-25.28L242.80-25.28Q242.80-28.72 239.52-28.72L239.52-28.72L239.52-28.72Q236.88-28.72 234.44-25.28L234.44-25.28L234.44-25.28Q232-21.84 230.40-15.84L230.40-15.84L227.68-0.88L227.68-0.88Q230.16-1.12 231.76-3.12L231.76-3.12L232.96-2.16L232.96-2.16Q230.56 0.72 226.96 0.72L226.96 0.72L226.96 0.72Q223.36 0.72 221.32-1.12L221.32-1.12L221.32-1.12Q219.28-2.96 219.28-5.92L219.28-5.92L219.28-5.92Q219.28-7.04 220.56-14.72L220.56-14.72L223.20-29.52L223.20-29.52Q220.80-29.28 219.20-27.28L219.20-27.28L218-28.24L218-28.24Q220.40-31.12 224.04-31.12L224.04-31.12L224.04-31.12Q227.68-31.12 229.68-29.28L229.68-29.28L229.68-29.28Q231.68-27.44 231.68-24.08L231.68-24.08L231.68-23.60L231.68-23.60Q234.96-31.12 241.92-31.12L241.92-31.12L241.92-31.12Q246.64-31.12 249.28-28.44L249.28-28.44L249.28-28.44Q251.92-25.76 251.92-21.04L251.92-21.04L251.92-21.04Q251.92-18.56 250.40-11.48L250.40-11.48L250.40-11.48Q248.88-4.40 248.72-0.88" fill="#b8ac2e" stroke="none" stroke-width="none" transform="translate(-161.760009765625,19.297918701171874)" style="fill: rgb(184, 172, 46);"></path></g><g class="path" style="transform: matrix(1, 0, 0, 1, 0, 14.925); opacity: 0.05; transform-origin: 113.52px 11.0979px; animation: 1s linear 0.528s 1 normal forwards running float-btt-in-e74ba304-f34b-4016-8964-a21a69a74b68;"><path d="M262.64-29.52L262.64-29.52L262.64-29.52Q260.72-29.52 258.64-27.28L258.64-27.28L257.44-28.24L257.44-28.24Q258-29.36 259.92-30.24L259.92-30.24L259.92-30.24Q261.84-31.12 264.16-31.12L264.16-31.12L264.16-31.12Q271.44-31.12 271.44-24.56L271.44-24.56L271.44-24.56Q271.44-21.76 269.92-15.40L269.92-15.40L269.92-15.40Q268.40-9.04 268.40-6.80L268.40-6.80L268.40-6.80Q268.40-2.96 271.60-2.96L271.60-2.96L271.60-2.96Q274.24-2.96 276.76-6.56L276.76-6.56L276.76-6.56Q279.28-10.16 280.88-16.24L280.88-16.24L283.52-30.40L283.52-30.40Q289.44-30.40 292.16-30.88L292.16-30.88L293.20-31.12L288.16-2.80L288.16-2.80Q286.72 5.44 281.48 10.08L281.48 10.08L281.48 10.08Q276.24 14.72 267.92 14.72L267.92 14.72L267.92 14.72Q262.88 14.72 260.12 13L260.12 13L260.12 13Q257.36 11.28 257.36 8.52L257.36 8.52L257.36 8.52Q257.36 5.76 259.04 4.12L259.04 4.12L259.04 4.12Q260.72 2.48 263.80 2.48L263.80 2.48L263.80 2.48Q266.88 2.48 269.52 3.48L269.52 3.48L269.52 3.48Q272.16 4.48 273.36 4.64L273.36 4.64L273.20 6.08L273.20 6.08Q271.84 5.92 269.28 4.96L269.28 4.96L269.28 4.96Q266.72 4 264.20 4L264.20 4L264.20 4Q261.68 4 260.36 5.12L260.36 5.12L260.36 5.12Q259.04 6.24 259.04 8.36L259.04 8.36L259.04 8.36Q259.04 10.48 261.36 11.80L261.36 11.80L261.36 11.80Q263.68 13.12 267.12 13.12L267.12 13.12L267.12 13.12Q275.44 13.12 277.36 3.12L277.36 3.12L279.36-7.92L279.36-7.92Q276-0.56 269.20-0.56L269.20-0.56L269.20-0.56Q264.56-0.56 262.04-3.20L262.04-3.20L262.04-3.20Q259.52-5.84 259.52-10.64L259.52-10.64L259.52-10.64Q259.52-13.12 261-19.56L261-19.56L261-19.56Q262.48-26 262.64-29.52" fill="#b8ac2e" stroke="none" stroke-width="none" transform="translate(-161.760009765625,19.297918701171874)" style="fill: rgb(184, 172, 46);"></path></g><g class="path" style="transform: matrix(1, 0, 0, 1, 0, 14.925); opacity: 0.05; transform-origin: 151.84px 4.09792px; animation: 1s linear 0.594s 1 normal forwards running float-btt-in-e74ba304-f34b-4016-8964-a21a69a74b68;"><path d="M324.56 0.72L324.56 0.72L324.56 0.72Q317.52 0.72 316.88-5.44L316.88-5.44L316.88-5.44Q313.36 0.72 308.00 0.72L308.00 0.72L308.00 0.72Q302.64 0.72 299.48-2.52L299.48-2.52L299.48-2.52Q296.32-5.76 296.32-11.60L296.32-11.60L296.32-11.60Q296.32-20.72 300.80-25.92L300.80-25.92L300.80-25.92Q305.28-31.12 312.40-31.12L312.40-31.12L312.40-31.12Q318.24-31.12 320.16-25.60L320.16-25.60L320.16-25.60Q320.56-28 321.04-30.40L321.04-30.40L321.04-30.40Q326.96-30.40 329.84-30.88L329.84-30.88L330.88-31.12L325.36-0.88L325.36-0.88Q327.76-1.12 329.36-3.12L329.36-3.12L330.56-2.16L330.56-2.16Q328.16 0.72 324.56 0.72zM305.36-7.52L305.36-7.52Q305.36-3.92 306.28-2.52L306.28-2.52L306.28-2.52Q307.20-1.12 309.12-1.12L309.12-1.12L309.12-1.12Q311.04-1.12 313.04-3.20L313.04-3.20L313.04-3.20Q315.68-5.92 317.28-10.08L317.28-10.08L317.28-10.08Q317.52-11.12 318.20-15.08L318.20-15.08L318.20-15.08Q318.88-19.04 319.36-21.60L319.36-21.60L319.36-21.60Q319.12-24.64 317.68-26.88L317.68-26.88L317.68-26.88Q316.24-29.12 314.08-29.12L314.08-29.12L314.08-29.12Q310.16-29.12 307.76-22.12L307.76-22.12L307.76-22.12Q305.36-15.12 305.36-7.52L305.36-7.52" fill="#b8ac2e" stroke="none" stroke-width="none" transform="translate(-161.760009765625,19.297918701171874)" style="fill: rgb(184, 172, 46);"></path></g></g>
</g>
</g>
<style id="float-btt-in-e74ba304-f34b-4016-8964-a21a69a74b68" data-anikit="">@keyframes float-btt-in-e74ba304-f34b-4016-8964-a21a69a74b68
{
  0% {
    animation-timing-function: cubic-bezier(0.2242,0.7499,0.3142,0.8148);
    transform: translate(0px,14.925px) rotate(0deg) scale(1,1) skewX(0deg) skewY(0deg);
    opacity: 0.05;
  }
  100% {
    transform: translate(0px,0px) rotate(0deg) scale(1,1) skewX(0deg) skewY(0deg);
    opacity: 1;
  }
}</style></svg>