<?xml version="1.0" encoding="utf-8"?>
<svg xmlns="http://www.w3.org/2000/svg" style="margin: auto; display: block; shape-rendering: auto; background: none;" width="241" height="77" preserveAspectRatio="xMidYMid">
<style type="text/css">
  text {
    text-anchor: middle; font-size: 80px; opacity: 0;
  }
</style>
<g style="transform-origin:120.5px 38.5px;transform:scale(1)">
<g transform="translate(120.5,38.5)">
  <g transform="translate(0,0)"><g class="path" style="transform: matrix(1, 0, 0, 1, 0, 14.925); opacity: 0.05; transform-origin: -57.72px -2.87707px; animation: 1s linear 0s 1 normal forwards running float-btt-in-e74ba304-f34b-4016-8964-a21a69a74b68;"><path d="M70.08-4.16L70.08-4.16Q66.32 0.24 59.96 2.88L59.96 2.88L59.96 2.88Q53.60 5.52 46.92 5.52L46.92 5.52L46.92 5.52Q40.24 5.52 35.60 4.24L35.60 4.24L35.60 4.24Q30.08 8.16 23.84 8.16L23.84 8.16L23.84 6.64L23.84 6.64Q26.96 6.56 28.36 5.80L28.36 5.80L28.36 5.80Q29.76 5.04 30.80 2.56L30.80 2.56L30.80 2.56Q26.64 0.72 23.52-2.12L23.52-2.12L23.52-2.12Q20.40-4.96 19.32-6.72L19.32-6.72L19.32-6.72Q18.24-8.48 18.24-8.80L18.24-8.80L19.68-9.36L19.68-9.36Q19.68-9.04 20.68-7.44L20.68-7.44L20.68-7.44Q21.68-5.84 24.60-3.16L24.60-3.16L24.60-3.16Q27.52-0.48 31.36 1.20L31.36 1.20L31.36 1.20Q32.48-1.60 33.20-5.76L33.20-5.76L40.32-46.88L40.32-46.88Q32-46.24 25.60-43.60L25.60-43.60L25.60-43.60Q31.04-37.84 31.04-29.84L31.04-29.84L31.04-29.84Q31.04-22.48 27.08-18.04L27.08-18.04L27.08-18.04Q23.12-13.60 18.32-13.60L18.32-13.60L18.32-13.60Q13.52-13.60 10.96-16.52L10.96-16.52L10.96-16.52Q8.40-19.44 8.40-23.44L8.40-23.44L8.40-23.44Q8.40-29.68 11.92-35.16L11.92-35.16L11.92-35.16Q15.44-40.64 22.80-44.16L22.80-44.16L22.80-44.16Q17.52-48.64 8.88-50.08L8.88-50.08L9.20-51.60L9.20-51.60Q18.88-49.84 24.32-44.80L24.32-44.80L24.32-44.80Q34-48.72 47.96-48.72L47.96-48.72L47.96-48.72Q61.92-48.72 69.92-42.36L69.92-42.36L69.92-42.36Q77.92-36 77.92-24.64L77.92-24.64L77.92-24.64Q77.92-13.04 70.08-4.16L70.08-4.16zM45.60 4.08L45.60 4.08L45.60 4.08Q53.20 4.08 59.28 1.56L59.28 1.56L59.28 1.56Q65.36-0.96 68.96-5.12L68.96-5.12L68.96-5.12Q76.40-13.60 76.40-24.12L76.40-24.12L76.40-24.12Q76.40-34.64 69.52-40.56L69.52-40.56L69.52-40.56Q62.64-46.48 50.32-47.12L50.32-47.12L50.32-47.12Q46.40-20.64 44.16-9.04L44.16-9.04L44.16-9.04Q42.72-1.68 37.12 3.12L37.12 3.12L37.12 3.12Q41.36 4.08 45.60 4.08zM9.92-23.44L9.92-23.44L9.92-23.44Q9.92-20.16 12.04-17.64L12.04-17.64L12.04-17.64Q14.16-15.12 18.36-15.12L18.36-15.12L18.36-15.12Q22.56-15.12 25.76-18.80L25.76-18.80L25.76-18.80Q28.96-22.48 29.44-28.16L29.44-28.16L29.44-28.16Q29.52-29.20 29.52-30.24L29.52-30.24L29.52-30.24Q29.52-37.44 24-42.96L24-42.96L24-42.96Q16.80-39.68 13.36-34.52L13.36-34.52L13.36-34.52Q9.92-29.36 9.92-23.44" fill="#b8ac2e" stroke="none" stroke-width="none" transform="translate(-100.8800048828125,18.842936503092442)" style="fill: rgb(184, 172, 46);"></path></g><g class="path" style="transform: matrix(1, 0, 0, 1, 0, 14.925); opacity: 0.05; transform-origin: -10.44px 3.64293px; animation: 1s linear 0.11s 1 normal forwards running float-btt-in-e74ba304-f34b-4016-8964-a21a69a74b68;"><path d="M97.12-2.16L97.12-2.16Q94.72 0.72 91.12 0.72L91.12 0.72L91.12 0.72Q87.52 0.72 85.48-1.12L85.48-1.12L85.48-1.12Q83.44-2.96 83.44-5.92L83.44-5.92L83.44-5.92Q83.44-6.96 84.72-14.64L84.72-14.64L87.36-28.96L84.00-28.96L84.16-30.40L87.60-30.40L87.60-30.40Q93.52-30.40 96.32-30.88L96.32-30.88L97.44-31.12L91.92-0.88L91.92-0.88Q94.32-1.12 95.92-3.12L95.92-3.12L97.12-2.16" fill="#b8ac2e" stroke="none" stroke-width="none" transform="translate(-100.8800048828125,18.842936503092442)" style="fill: rgb(184, 172, 46);"></path></g><g class="path" style="transform: matrix(1, 0, 0, 1, 0, 14.925); opacity: 0.05; transform-origin: -6.68px -24.0771px; animation: 1s linear 0.22s 1 normal forwards running float-btt-in-e74ba304-f34b-4016-8964-a21a69a74b68;"><path d="M90.08-38.80L90.08-38.80L90.08-38.80Q88.40-40.48 88.40-42.88L88.40-42.88L88.40-42.88Q88.40-45.28 90.08-47L90.08-47L90.08-47Q91.76-48.72 94.16-48.72L94.16-48.72L94.16-48.72Q96.56-48.72 98.28-47L98.28-47L98.28-47Q100.00-45.28 100.00-42.88L100.00-42.88L100.00-42.88Q100.00-40.48 98.28-38.80L98.28-38.80L98.28-38.80Q96.56-37.12 94.16-37.12L94.16-37.12L94.16-37.12Q91.76-37.12 90.08-38.80" fill="#b8ac2e" stroke="none" stroke-width="none" transform="translate(-100.8800048828125,18.842936503092442)" style="fill: rgb(184, 172, 46);"></path></g><g class="path" style="transform: matrix(1, 0, 0, 1, 0, 14.925); opacity: 0.05; transform-origin: 16.36px 3.64293px; animation: 1s linear 0.33s 1 normal forwards running float-btt-in-e74ba304-f34b-4016-8964-a21a69a74b68;"><path d="M122.64-21.20L122.64-21.20L122.64-21.20Q120.96-22.88 120.96-25.28L120.96-25.28L120.96-25.28Q120.96-27.68 122.64-29.40L122.64-29.40L122.64-29.40Q124.32-31.12 126.44-31.12L126.44-31.12L126.44-31.12Q128.56-31.12 130.04-30.04L130.04-30.04L130.04-30.04Q131.52-28.96 132.16-27.28L132.16-27.28L132.16-27.28Q132.24-27.20 132.24-27.12L132.24-27.12L132.24-27.04L132.24-27.04Q133.20-24.96 133.20-21L133.20-21L133.20-21Q133.20-17.04 132.28-13.76L132.28-13.76L132.28-13.76Q131.36-10.48 129.48-7.08L129.48-7.08L129.48-7.08Q127.60-3.68 124-1.48L124-1.48L124-1.48Q120.40 0.72 115.52 0.72L115.52 0.72L115.52 0.72Q110.64 0.72 107.40-2.48L107.40-2.48L107.40-2.48Q104.16-5.68 104.16-9.84L104.16-9.84L104.16-9.84Q104.16-14 105.64-20.12L105.64-20.12L105.64-20.12Q107.12-26.24 107.28-29.52L107.28-29.52L107.28-29.52Q106.00-29.44 104.80-28.60L104.80-28.60L104.80-28.60Q103.60-27.76 103.04-26.96L103.04-26.96L102.48-26.16L101.28-27.12L101.28-27.12Q101.52-27.60 102.00-28.24L102.00-28.24L102.00-28.24Q102.48-28.88 104.44-30L104.44-30L104.44-30Q106.40-31.12 109.36-31.12L109.36-31.12L109.36-31.12Q112.32-31.12 114.12-29.20L114.12-29.20L114.12-29.20Q115.92-27.28 115.92-24.32L115.92-24.32L115.92-24.32Q115.92-21.36 114.32-15.16L114.32-15.16L114.32-15.16Q112.72-8.96 112.72-6.44L112.72-6.44L112.72-6.44Q112.72-3.92 113.88-2.48L113.88-2.48L113.88-2.48Q115.04-1.04 117.20-1.04L117.20-1.04L117.20-1.04Q122.56-1.04 126.96-6.88L126.96-6.88L126.96-6.88Q131.36-12.72 131.36-19.92L131.36-19.92L131.36-19.92Q131.36-20.48 131.20-21.60L131.20-21.60L131.20-21.60Q129.52-19.52 126.92-19.52L126.92-19.52L126.92-19.52Q124.32-19.52 122.64-21.20" fill="#b8ac2e" stroke="none" stroke-width="none" transform="translate(-100.8800048828125,18.842936503092442)" style="fill: rgb(184, 172, 46);"></path></g><g class="path" style="transform: matrix(1, 0, 0, 1, 0, 14.925); opacity: 0.05; transform-origin: 53.68px 10.6429px; animation: 1s linear 0.44s 1 normal forwards running float-btt-in-e74ba304-f34b-4016-8964-a21a69a74b68;"><path d="M141.92-29.52L141.92-29.52L141.92-29.52Q140-29.52 137.92-27.28L137.92-27.28L136.72-28.24L136.72-28.24Q137.28-29.36 139.20-30.24L139.20-30.24L139.20-30.24Q141.12-31.12 143.44-31.12L143.44-31.12L143.44-31.12Q150.72-31.12 150.72-24.56L150.72-24.56L150.72-24.56Q150.72-21.76 149.20-15.40L149.20-15.40L149.20-15.40Q147.68-9.04 147.68-6.80L147.68-6.80L147.68-6.80Q147.68-2.96 150.88-2.96L150.88-2.96L150.88-2.96Q153.52-2.96 156.04-6.56L156.04-6.56L156.04-6.56Q158.56-10.16 160.16-16.24L160.16-16.24L162.80-30.40L162.80-30.40Q168.72-30.40 171.44-30.88L171.44-30.88L172.48-31.12L167.44-2.80L167.44-2.80Q166 5.44 160.76 10.08L160.76 10.08L160.76 10.08Q155.52 14.72 147.20 14.72L147.20 14.72L147.20 14.72Q142.16 14.72 139.40 13L139.40 13L139.40 13Q136.64 11.28 136.64 8.52L136.64 8.52L136.64 8.52Q136.64 5.76 138.32 4.12L138.32 4.12L138.32 4.12Q140 2.48 143.08 2.48L143.08 2.48L143.08 2.48Q146.16 2.48 148.80 3.48L148.80 3.48L148.80 3.48Q151.44 4.48 152.64 4.64L152.64 4.64L152.48 6.08L152.48 6.08Q151.12 5.92 148.56 4.96L148.56 4.96L148.56 4.96Q146 4 143.48 4L143.48 4L143.48 4Q140.96 4 139.64 5.12L139.64 5.12L139.64 5.12Q138.32 6.24 138.32 8.36L138.32 8.36L138.32 8.36Q138.32 10.48 140.64 11.80L140.64 11.80L140.64 11.80Q142.96 13.12 146.40 13.12L146.40 13.12L146.40 13.12Q154.72 13.12 156.64 3.12L156.64 3.12L158.64-7.92L158.64-7.92Q155.28-0.56 148.48-0.56L148.48-0.56L148.48-0.56Q143.84-0.56 141.32-3.20L141.32-3.20L141.32-3.20Q138.80-5.84 138.80-10.64L138.80-10.64L138.80-10.64Q138.80-13.12 140.28-19.56L140.28-19.56L140.28-19.56Q141.76-26 141.92-29.52" fill="#b8ac2e" stroke="none" stroke-width="none" transform="translate(-100.8800048828125,18.842936503092442)" style="fill: rgb(184, 172, 46);"></path></g><g class="path" style="transform: matrix(1, 0, 0, 1, 0, 14.925); opacity: 0.05; transform-origin: 92px 3.64293px; animation: 1s linear 0.55s 1 normal forwards running float-btt-in-e74ba304-f34b-4016-8964-a21a69a74b68;"><path d="M203.84 0.72L203.84 0.72L203.84 0.72Q196.80 0.72 196.16-5.44L196.16-5.44L196.16-5.44Q192.64 0.72 187.28 0.72L187.28 0.72L187.28 0.72Q181.92 0.72 178.76-2.52L178.76-2.52L178.76-2.52Q175.60-5.76 175.60-11.60L175.60-11.60L175.60-11.60Q175.60-20.72 180.08-25.92L180.08-25.92L180.08-25.92Q184.56-31.12 191.68-31.12L191.68-31.12L191.68-31.12Q197.52-31.12 199.44-25.60L199.44-25.60L199.44-25.60Q199.84-28 200.32-30.40L200.32-30.40L200.32-30.40Q206.24-30.40 209.12-30.88L209.12-30.88L210.16-31.12L204.64-0.88L204.64-0.88Q207.04-1.12 208.64-3.12L208.64-3.12L209.84-2.16L209.84-2.16Q207.44 0.72 203.84 0.72zM184.64-7.52L184.64-7.52Q184.64-3.92 185.56-2.52L185.56-2.52L185.56-2.52Q186.48-1.12 188.40-1.12L188.40-1.12L188.40-1.12Q190.32-1.12 192.32-3.20L192.32-3.20L192.32-3.20Q194.96-5.92 196.56-10.08L196.56-10.08L196.56-10.08Q196.80-11.12 197.48-15.08L197.48-15.08L197.48-15.08Q198.16-19.04 198.64-21.60L198.64-21.60L198.64-21.60Q198.40-24.64 196.96-26.88L196.96-26.88L196.96-26.88Q195.52-29.12 193.36-29.12L193.36-29.12L193.36-29.12Q189.44-29.12 187.04-22.12L187.04-22.12L187.04-22.12Q184.64-15.12 184.64-7.52L184.64-7.52" fill="#b8ac2e" stroke="none" stroke-width="none" transform="translate(-100.8800048828125,18.842936503092442)" style="fill: rgb(184, 172, 46);"></path></g></g>
</g>
</g>
<style id="float-btt-in-e74ba304-f34b-4016-8964-a21a69a74b68" data-anikit="">@keyframes float-btt-in-e74ba304-f34b-4016-8964-a21a69a74b68
{
  0% {
    animation-timing-function: cubic-bezier(0.2242,0.7499,0.3142,0.8148);
    transform: translate(0px,14.925px) rotate(0deg) scale(1,1) skewX(0deg) skewY(0deg);
    opacity: 0.05;
  }
  100% {
    transform: translate(0px,0px) rotate(0deg) scale(1,1) skewX(0deg) skewY(0deg);
    opacity: 1;
  }
}</style></svg>