<?xml version="1.0" encoding="utf-8"?>
<svg viewBox="141.25 50.29 217.5 116.46" width="217.5" height="116.46" xmlns="http://www.w3.org/2000/svg">
  <defs>
    <filter id="editing-extrude-glow">
      <feFlood flood-color="none" result="flood-1"/>
      <feMorphology operator="erode" radius="1" in="SourceAlpha" result="erode"/>
      <feComposite operator="in" in="flood-1" in2="erode" result="comp1"/>
      <feConvolveMatrix order="0,0" divisor="1" in="comp1" result="convolve" kernelMatrix=""/>
      <feOffset dx="0" dy="0" in="convolve" result="extrude"/>
      <feComposite operator="in" in="flood-1" in2="extrude" result="comp-extrude"/>
      <feFlood flood-color="#ffffff" result="flood-2"/>
      <feComposite operator="in" in="flood-2" in2="SourceAlpha" result="comp2"/>
      <feMorphology operator="dilate" radius="1" in="comp2" result="dilate"/>
      <feOffset dx="0" dy="0" in="dilate" result="offset"/>
      <feGaussianBlur in="offset" stdDeviation="5.8" result="blur"/>
      <feComponentTransfer in="blur" result="shadow">
        <feFuncA type="linear" slope="0.8" intercept="-0.2"/>
      </feComponentTransfer>
      <feMerge>
        <feMergeNode in="shadow"/>
        <feMergeNode in="comp-extrude"/>
        <feMergeNode in="SourceGraphic"/>
      </feMerge>
    </filter>
    <style>text {
  font-size: 64px;
  font-family: Arial Black;
  dominant-baseline: central;
  text-anchor: middle;
}</style>
  </defs>
  <g filter="url(#editing-extrude-glow)">
    <g transform="translate(137.65000009536743, 133.2300033569336)">
      <path d="M27.84-75.17L27.84-75.17L27.84-75.17Q25.75-75.17 24.24-74.47L24.24-74.47L24.24-74.47Q22.74-73.78 22.74-72.73L22.74-72.73L22.74-72.73Q21.34-67.86 21.34-43.67L21.34-43.67L21.34-43.67Q21.34-19.49 21.23-16.59L21.23-16.59L21.23-16.59Q23.43-13.11 28.07-13.11L28.07-13.11L28.07-13.11Q36.31-13.11 40.48-22.21L40.48-22.21L40.48-22.21Q44.66-31.32 44.66-45.07L44.66-45.07L44.66-45.07Q44.66-58.81 40.60-66.99L40.60-66.99L40.60-66.99Q36.54-75.17 27.84-75.17ZM5.68 1.28L5.68 1.28L5.68 1.28Q3.94 1.04 3.94 0.23L3.94 0.23L4.29-1.16L4.29-1.16Q7.19-7.42 7.19-46.28L7.19-46.28L7.19-46.28Q7.19-64.84 6.21-69.48L6.21-69.48L6.21-69.48Q5.22-74.12 4.64-75.40L4.64-75.40L4.06-76.56L4.06-76.56Q3.60-77.02 3.60-77.89L3.60-77.89L3.60-77.89Q3.60-78.76 4.99-79.34L4.99-79.34L4.99-79.34Q14.04-82.94 28.77-82.94L28.77-82.94L28.77-82.94Q59.74-82.94 59.74-43.50L59.74-43.50L59.74-43.50Q59.74-28.07 54.29-15.31L54.29-15.31L54.29-15.31Q52.08-10.44 49.18-6.90L49.18-6.90L49.18-6.90Q46.28-3.36 41.59-0.99L41.59-0.99L41.59-0.99Q36.89 1.39 31.20 1.39L31.20 1.39L31.20 1.39Q30.04 1.28 28.25 1.04L28.25 1.04L28.25 1.04Q26.45 0.81 22.91-0.70L22.91-0.70L22.91-0.70Q19.37-2.20 18.10-4.64L18.10-4.64L18.10-4.64Q13.80 1.28 5.68 1.28ZM76.33-62.06L76.33-62.06L73.54-62.18L73.54-62.18Q70.41-62.18 69.48-60.67L69.48-60.67L69.48-60.67Q69.25-60.32 68.90-60.32L68.90-60.32L68.90-60.32Q67.40-60.32 67.40-65.48L67.40-65.48L67.40-65.48Q67.40-70.64 68.96-72.04L68.96-72.04L68.96-72.04Q70.53-73.43 74.41-73.43L74.41-73.43L74.41-73.43Q78.30-73.43 79.69-72.09L79.69-72.09L79.69-72.09Q81.08-70.76 81.08-67.63L81.08-67.63L81.08-67.63Q81.08-64.50 80.04-63.28L80.04-63.28L80.04-63.28Q79.00-62.06 76.33-62.06ZM67.05-3.48L67.05-3.48L68.32-30.51L68.32-30.51Q68.32-40.14 66.12-43.62L66.12-43.62L66.12-43.62Q65.42-44.78 64.50-45.36L64.50-45.36L64.50-45.36Q63.80-45.59 63.80-46.28L63.80-46.28L63.80-46.28Q63.80-48.37 69.72-50.34L69.72-50.34L69.72-50.34Q75.63-52.32 78.36-52.32L78.36-52.32L78.36-52.32Q81.08-52.32 81.20-50.92L81.20-50.92L81.20-50.92Q81.20-48.60 80.56-37.76L80.56-37.76L80.56-37.76Q79.92-26.91 79.92-14.96L79.92-14.96L79.92-14.96Q79.92-3.02 81.32-0.12L81.32-0.12L81.32-0.12Q81.66 0.46 81.66 1.04L81.66 1.04L81.66 1.04Q81.66 2.55 77.26 2.55L77.26 2.55L77.26 2.55Q72.85 2.55 68.21 0.23L68.21 0.23L68.21 0.23Q67.05-0.35 67.05-3.48ZM114.90-50.11L114.90-50.11L114.90-50.11Q119.83-52.55 124.70-52.55L124.70-52.55L124.70-52.55Q129.57-52.55 129.57-42.46L129.57-42.46L129.57-42.46Q129.57-35.03 126.85-27.38L126.85-27.38L126.85-27.38Q124.12-19.72 120.06-13.92L120.06-13.92L120.06-13.92Q111.71-1.74 104.98 2.32L104.98 2.32L104.98 2.32Q103.36 3.25 102.54 3.25L102.54 3.25L102.54 3.25Q101.73 3.25 100.86 1.51L100.86 1.51L100.86 1.51Q99.99-0.23 98.19-6.15L98.19-6.15L98.19-6.15Q96.40-12.06 95.24-16.70L95.24-16.70L94.19-21.46L94.19-21.46Q91.87-31.67 89.67-37.76L89.67-37.76L89.67-37.76Q87.46-43.85 86.42-44.78L86.42-44.78L85.26-45.82L85.26-45.82Q84.10-46.40 84.10-47.21L84.10-47.21L84.68-48.26L84.68-48.26Q86.19-49.65 89.73-51.10L89.73-51.10L89.73-51.10Q93.26-52.55 97.56-52.55L97.56-52.55L97.56-52.55Q99.53-52.55 99.99-50.34L99.99-50.34L99.99-50.34Q101.73-45.01 103.01-37.82L103.01-37.82L103.01-37.82Q104.28-30.62 106.43-21.58L106.43-21.58L106.43-21.58Q108.58-12.53 109.97-12.41L109.97-12.41L109.97-12.41Q110.66-12.41 111.53-13.46L111.53-13.46L111.53-13.46Q112.40-14.50 113.62-16.24L113.62-16.24L113.62-16.24Q114.84-17.98 116.64-22.97L116.64-22.97L116.64-22.97Q118.44-27.96 118.44-31.49L118.44-31.49L118.44-31.49Q118.44-35.03 118.15-36.95L118.15-36.95L118.15-36.95Q117.86-38.86 116.12-41.41L116.12-41.41L116.12-41.41Q114.38-43.96 112.17-44.37L112.17-44.37L112.17-44.37Q109.97-44.78 109.97-45.82L109.97-45.82L109.97-45.82Q109.97-47.68 114.90-50.11ZM154.16 32.13L154.16 32.13L154.16 32.13Q154.16 33.52 152.77 33.52L152.77 33.52L152.66 33.52L152.66 33.52Q148.83 33.52 144.01 30.86L144.01 30.86L144.01 30.86Q139.20 28.19 139.20 24.71L139.20 24.71L139.20 24.71Q139.20 21.23 143.61 12.59L143.61 12.59L143.61 12.59Q148.02 3.94 148.02 1.04L148.02 1.04L148.02 1.04Q148.02-2.09 145.00-10.21L145.00-10.21L145.00-10.21Q141.17-20.76 138.91-27.38L138.91-27.38L138.91-27.38Q136.65-33.99 134.04-39.03L134.04-39.03L134.04-39.03Q131.43-44.08 130.27-45.01L130.27-45.01L129.11-45.82L129.11-45.82Q127.83-46.52 127.83-47.33L127.83-47.33L127.83-47.33Q127.83-48.95 132.88-50.63L132.88-50.63L132.88-50.63Q137.92-52.32 141.75-52.32L141.75-52.32L141.75-52.32Q143.49-52.32 144.65-49.53L144.65-49.53L144.65-49.53Q146.74-44.08 149.18-34.45L149.18-34.45L149.18-34.45Q155.09-14.73 156.60-14.73L156.60-14.73L156.60-14.73Q157.64-14.73 160.83-22.85L160.83-22.85L160.83-22.85Q164.02-30.97 164.02-35.96L164.02-35.96L164.02-35.96Q164.02-44.66 158.92-46.17L158.92-46.17L158.92-46.17Q157.76-46.40 157.76-47.33L157.76-47.33L157.76-47.33Q157.76-49.42 163.21-51.33L163.21-51.33L163.21-51.33Q168.66-53.24 173.07-53.24L173.07-53.24L173.07-53.24Q176.90-53.24 176.90-48.26L176.90-48.26L176.90-48.26Q176.90-44.43 175.28-39.32L175.28-39.32L175.28-39.32Q173.65-34.22 172.26-31.26L172.26-31.26L172.26-31.26Q170.87-28.30 165.36-17.57L165.36-17.57L165.36-17.57Q159.85-6.84 156.25 1.28L156.25 1.28L156.25 1.28Q152.31 11.02 152.31 21.11L152.31 21.11L152.31 21.11Q152.31 26.45 153.24 29.12L153.24 29.12L153.24 29.12Q154.16 31.78 154.16 32.13ZM217.50-34.80L217.50-34.80L217.27-19.95L217.27-19.95Q217.27-4.52 220.63-1.39L220.63-1.39L220.63-1.39Q221.10-0.93 221.10-0.35L221.10-0.35L221.10-0.35Q221.10 1.39 213.61 1.39L213.61 1.39L213.61 1.39Q206.13 1.39 205.67-3.02L205.67-3.02L205.67-3.02Q205.55-4.06 205.55-7.31L205.55-7.31L206.02-25.87L206.02-25.87Q206.02-26.68 205.09-26.68L205.09-26.68L205.09-26.68Q199.52-26.68 194.65-23.55L194.65-23.55L194.65-23.55Q189.78-20.42 189.78-15.54L189.78-15.54L189.78-15.54Q189.78-12.99 191.17-11.25L191.17-11.25L191.17-11.25Q192.56-9.51 194.59-9.51L194.59-9.51L194.59-9.51Q196.62-9.51 197.95-10.32L197.95-10.32L197.95-10.32Q199.29-11.14 199.52-11.25L199.52-11.25L199.52-11.25Q201.49-11.02 201.49-7.13L201.49-7.13L201.49-7.13Q201.49-3.25 197.90-0.87L197.90-0.87L197.90-0.87Q194.30 1.51 190.36 1.51L190.36 1.51L190.36 1.51Q186.41 1.51 183.57 0.12L183.57 0.12L183.57 0.12Q180.73-1.28 179.45-3.02L179.45-3.02L179.45-3.02Q178.18-4.76 177.36-6.96L177.36-6.96L177.36-6.96Q176.55-9.63 176.55-11.60L176.55-11.60L176.55-11.60Q176.55-19.72 181.66-24.59L181.66-24.59L181.66-24.59Q186.76-29.46 194.76-31.55L194.76-31.55L194.76-31.55Q205.32-33.64 205.78-35.38L205.78-35.38L205.78-35.38Q206.13-36.66 206.13-39.67L206.13-39.67L206.13-39.67Q206.13-45.82 199.87-45.82L199.87-45.82L199.87-45.82Q197.20-45.82 195.11-44.14L195.11-44.14L195.11-44.14Q193.02-42.46 193.02-39.90L193.02-39.90L193.72-37.12L193.72-37.12Q193.49-35.15 189.54-34.80L189.54-34.80L188.27-34.68L188.27-34.68Q184.79-34.68 182.76-36.42L182.76-36.42L182.76-36.42Q180.73-38.16 180.73-41.06L180.73-41.06L180.73-41.06Q180.73-42.92 181.95-45.18L181.95-45.18L181.95-45.18Q183.16-47.44 185.02-48.84L185.02-48.84L185.02-48.84Q186.88-50.23 190.76-51.33L190.76-51.33L190.76-51.33Q194.65-52.43 198.24-52.43L198.24-52.43L198.24-52.43Q201.84-52.43 203.81-52.20L203.81-52.20L203.81-52.20Q205.78-51.97 209.21-51.10L209.21-51.10L209.21-51.10Q212.63-50.23 214.89-47.79L214.89-47.79L214.89-47.79Q217.15-45.36 217.33-42.63L217.33-42.63L217.33-42.63Q217.50-39.90 217.50-34.80Z" fill="#3d4163"/>
    </g>
  </g>
</svg>