<?xml version="1.0"?><svg width="160" height="160" xmlns="http://www.w3.org/2000/svg" xmlns:xlink="http://www.w3.org/1999/xlink">
 <defs>
  <linearGradient id="linearGradient930">
   <stop stop-color="#000" offset="0" id="stop931"/>
   <stop stop-color="#fff" offset="1" id="stop932"/>
  </linearGradient>
  <linearGradient xlink:href="#linearGradient930" id="linearGradient933"/>
 </defs>
 <g>
  <title>Layer 1</title>
  <path fill="#e6b100" fill-rule="evenodd" stroke="#000000" stroke-width="1.4159204pt" id="path850" d="m142.588196,108.356934c0,12.470848 -29.229507,22.592133 -65.244423,22.592133c-36.014942,0 -65.244443,-10.121284 -65.244443,-22.592133c0,-12.470863 29.229501,-22.59214 65.244443,-22.59214c36.014915,0 65.244423,10.121277 65.244423,22.59214z"/>
  <path fill="#ffffaa" fill-rule="evenodd" stroke="#000000" stroke-width="1.1624797pt" id="path829" d="m77.343742,42.67437c-31.240963,0 -56.595953,9.065319 -56.595953,20.2351c0,0.51825 0.215191,39.44384 0.215191,39.697891c0,11.169769 25.35499,20.235107 56.595957,20.235107c31.240974,0 56.59597,-9.065338 56.59597,-20.235107l-0.21521,-38.92556c0,0 0,-0.508121 0,-0.772331c0,-11.169781 -25.354988,-20.2351 -56.595955,-20.2351z"/>
  <path fill="#ffffff" fill-rule="evenodd" stroke="#000000" stroke-width="1.3149115pt" id="path833" d="m19.026239,58.533051c-0.46232,4.15377 -4.42116,15.395348 3.564651,13.637596c7.970669,0.627045 -0.124031,13.693596 8.245829,14.20649c6.801189,0.516296 1.06971,-10.291794 7.242599,-7.014687c6.293961,1.262527 5.483311,7.471397 6.3386,11.670547c4.158211,3.326523 5.508392,-2.501961 4.234112,-5.192604c3.122028,-4.528656 11.814259,-2.601494 16.329369,-0.912445c2.515587,4.585983 4.296654,14.047699 12.238937,11.482109c5.293526,-1.606659 7.611076,-11.26545 12.999992,-12.126274c4.85054,0.047859 5.204308,11.750954 10.576622,6.451035c1.464645,-4.32106 9.301445,-12.107071 14.09996,-6.909798c4.833961,4.445038 12.224197,1.106201 10.427361,-6.526672c2.591225,-4.517281 10.150261,1.838089 10.166054,-10.589554c1.162994,-5.864933 0.210739,-11.300343 -7.859863,-16.026314c-4.883514,-2.337269 -12.125549,-3.453598 -19.225945,-6.36158c-7.698631,-2.704819 -14.924431,-4.160648 -23.04213,-5.29826c-14.164406,-0.241199 -25.948349,1.43042 -39.86282,4.077091c-6.569469,0.78437 -11.24474,4.882679 -17.23572,6.89925c-3.77343,1.734768 -7.65428,5.225578 -9.23761,8.534069z"/>
  <path fill="#ffffff" fill-rule="evenodd" stroke-width="1pt" fill-opacity="0.8" id="path835" d="m22.469339,64.417763c0,5.147896 5.118071,4.27298 8.177361,7.061638c2.989672,1.362602 5.006128,2.353882 8.607752,2.353882c5.106277,0 -0.650303,-1.669479 -2.151943,-2.353882c-3.543259,0 -9.038128,-1.87027 -9.038128,-5.100082c-2.12343,-1.93557 -2.475512,-1.961555 -5.595041,-1.961555z"/>
  <path fill="#ffffff" fill-rule="evenodd" stroke-width="1pt" fill-opacity="0.8" id="path836" d="m52.16608,75.402527c1.34449,2.451111 7.79752,3.53083 13.342007,3.53083c2.936943,1.338562 15.49395,2.446136 15.49395,-1.569244c0,-3.017921 -7.94352,-0.78463 -9.468513,-0.78463c-2.707817,0 -13.789444,-3.515289 -15.493965,-1.961586c-1.657749,0 -2.047508,0.118866 -3.873478,0.78463z"/>
  <path fill="#ffffff" fill-rule="evenodd" stroke-width="1pt" fill-opacity="0.8" id="path837" d="m90.040176,76.579483c3.12944,2.8526 13.670441,1.027245 18.50666,-1.176956c1.909836,-1.160583 9.038139,-1.89856 9.038139,-4.315445c1.680046,-1.53141 -6.200226,-0.625282 -7.316589,0.392319c-5.415428,0 -13.11232,1.176941 -19.367424,1.176941c-2.614006,0 -1.310951,2.89727 -0.860786,3.923141z"/>
  <path fill="#ffffff" fill-opacity="0.8" fill-rule="evenodd" stroke-width="0.93640270pt" id="path838" d="m126.023247,71.264572c1.433624,-1.565781 4.77874,-5.210953 6.259071,-8.444553c0,-1.35804 2.083176,-6.031818 -0.368179,-6.031818c-2.076721,0 -4.418167,3.021389 -4.418167,5.227581c-0.968948,1.05827 -0.024208,6.031818 -2.209084,6.031818c0,3.175819 -2.440338,3.216972 0.736359,3.216972z"/>
  <path fill="#ffffff" fill-rule="evenodd" stroke-width="1pt" fill-opacity="0.8" id="path839" d="m117.154587,49.50983c-3.473373,0 -6.812805,-1.73196 -10.759689,-3.530819c-4.742577,-1.080761 -9.459297,-3.138512 -14.202774,-3.138512c0,5.638672 8.885284,9.09288 14.202774,6.669331c3.978149,0 6.400612,1.98674 10.759689,0z"/>
  <path fill="#ffffff" fill-opacity="0.8" fill-rule="evenodd" stroke-width="1.0000000pt" id="path840" d="m80.384163,42.79121c-1.264244,-0.37318 -8.099686,-0.864571 -12.237267,-0.292728c-2.652786,0.366627 -5.260296,1.123798 -8.020447,1.505268c-4.190018,0.579079 -4.512669,3.004459 -0.038418,2.386089c4.428791,-0.61208 8.774197,-0.022247 13.3848,-0.659458c2.282745,1.532898 5.990166,-1.487061 6.911331,-2.939171z"/>
  <path fill="#ffffff" fill-rule="evenodd" stroke-width="1pt" fill-opacity="0.8" id="path841" d="m44.849491,48.33289c-1.911221,0 -6.76181,2.353889 -9.898911,2.353889c-2.1572,0 -9.468531,1.641582 -9.468531,3.530823c-2.76886,2.523918 7.704699,-1.569252 11.620459,-1.569252c2.268353,0 6.455822,0.106102 6.455822,-1.961571c1.598549,0 1.291161,-1.08083 1.291161,-2.353889z"/>
  <path fill="#ffffff" fill-rule="evenodd" stroke-width="1pt" fill-opacity="0.8" id="path842" d="m31.077089,61.671558c2.58893,0 8.042509,0.784622 12.050852,0.784622c2.038639,-1.85828 7.316589,0.72683 7.316589,-3.1385c0,-0.813622 -9.119442,-1.56926 -10.3293,-1.56926c-1.663639,0 -6.093891,0.847031 -9.038141,3.923138z"/>
  <path fill="#ffffff" fill-rule="evenodd" stroke-width="1pt" fill-opacity="0.8" id="path843" d="m47.431808,70.30246c3.2794,-2.989288 5.89632,-5.37471 9.038143,-8.23859c1.676609,-1.528278 6.254028,0.28812 1.72155,2.353893c0,2.404327 -2.211723,4.315437 -4.734261,4.315437c-2.1124,1.925529 -2.81776,1.56926 -6.025433,1.56926z"/>
  <path fill="#ffffff" fill-rule="evenodd" stroke-width="1pt" fill-opacity="0.8" id="path844" d="m52.16608,49.902149c0,2.255772 10.3293,2.924591 10.3293,5.100082c3.185108,0 1.668339,-4.315453 -1.291172,-4.315453c-3.76416,0 -5.354309,-1.456219 -9.038128,-0.78463z"/>
  <path fill="#ffffff" fill-rule="evenodd" stroke-width="1pt" fill-opacity="0.8" id="path845" d="m85.305923,45.979012c-2.252426,2.05315 -2.40966,7.061649 -5.595047,7.061649c0,4.579281 5.595047,2.23114 5.595047,-0.78463c1.163643,-1.060711 2.151939,-5.058311 0,-6.27702z"/>
  <path fill="#ffffff" fill-rule="evenodd" stroke-width="1pt" fill-opacity="0.8" id="path846" d="m78.850113,64.417763c0,0.863785 1.72155,5.997391 1.72155,6.669319c3.483047,1.587471 4.734261,-1.318748 4.734261,-3.923134c-3.243187,-2.956261 0.179398,-7.930397 -6.455811,-2.746185z"/>
  <path fill="#ffffff" fill-rule="evenodd" stroke-width="1pt" fill-opacity="0.8" id="path847" d="m119.736923,52.64835c-1.839256,0 -14.328796,1.79895 -15.49395,3.92313c0,6.227699 8.742279,0.78463 12.911613,0.78463c2.43277,0 2.975555,-2.557129 2.582336,-4.70776z"/>
  <path fill="#ffffff" fill-rule="evenodd" stroke-width="1pt" fill-opacity="0.8" id="path848" d="m119.736923,65.594704c-2.785545,-2.539124 -7.681122,-1.961575 -11.620476,-1.961575c-2.935989,0 -5.283508,2.746189 -1.291161,2.746189c3.412582,0 6.101715,0.78463 9.898911,0.78463c1.779396,0 0.636734,0.163383 3.012726,-1.569244z"/>
  <g externalResourcesRequired="false" transform="matrix(-1.33572 0.305938 0.335629 1.21755 245.397 -25.7561)" id="g886">
   <path fill="#0075ff" fill-rule="evenodd" stroke="#000000" stroke-width="0.71048145pt" stroke-linejoin="round" id="path887" d="m129.414795,18.988163c1.051361,1.837952 2.829025,0.862801 4.758057,1.006971c1.95752,0.165421 2.813797,-1.109381 4.007141,-1.503342c3.47583,2.10087 0.39682,4.957201 1.079575,8.574991c0.04715,2.63899 0.475952,6.87373 0.879242,9.674271c0.163986,2.295109 -5.927628,2.471668 -7.086456,1.450127c-0.95726,-0.584007 -1.701462,-2.451138 -1.102234,-4.614277c0.161575,-2.66469 -0.678757,-4.053038 -1.169952,-6.677828c0.135651,-3.223972 -3.38559,-4.167721 -1.365372,-7.910913z"/>
   <path fill="#00ffff" fill-rule="evenodd" stroke="#000000" stroke-width="0.71048145pt" stroke-linejoin="round" id="path888" d="m129.410889,18.645113c0.776718,0.214069 2.405731,0.41147 3.188477,0.087879c0.875824,0 2.12326,0.265612 2.763351,-0.26363c0.5009,0 1.913727,-0.175749 2.550797,-0.175749c0.803589,0 -0.42514,-0.273911 -0.42514,0.439379c-0.58963,0 -1.07103,0.446161 -1.487961,0.79088c-0.363022,0.600313 -1.411957,0.615143 -2.125656,0.615143c-0.831696,0 -1.809311,-0.087881 -2.657074,-0.087881c-0.784058,0 -1.487946,-0.136219 -1.806793,-1.406021z"/>
   <path fill="#ffa800" fill-rule="evenodd" stroke="#000000" stroke-width="0.71048145pt" id="path889" d="m131.323975,3.091044c1.487961,1.669649 9.671722,12.829911 1.487961,13.445049c-11.053421,1.31814 -0.531403,-9.578498 -1.487961,-13.445049z"/>
   <path fill="#ffff00" fill-rule="evenodd" stroke-width="1pt" id="path890" d="m132.37587,7.649585c0.777298,1.04184 4.521027,8.181479 0.24588,8.565309c-5.774246,0.82251 0.253799,-6.152629 -0.24588,-8.565309z"/>
   <path fill="none" fill-opacity="0.75" fill-rule="evenodd" stroke="#000000" stroke-width="0.71048145pt" id="path891" d="m133.981033,19.611753c-1.615356,-0.97216 -2.272049,-2.66688 -1.733597,-3.582399c0.416534,-0.998219 0.595108,-3.25237 0.595108,-4.65725"/>
  </g>
  <path fill="#ffffff" fill-rule="evenodd" stroke-width="1pt" fill-opacity="0.3" id="path901" d="m68.469559,25.3249c-1.79451,2.57926 1.960335,4.20768 2.413254,6.552731c1.002541,2.94644 1.40097,7.12723 1.587891,10.19512c-0.936844,2.09779 1.559357,7.113369 2.533539,3.469521c0.234421,-4.46265 -0.964073,-10.878941 -1.748672,-15.24457c-0.68541,-2.334961 -2.111893,-4.58049 -4.786011,-4.972801z"/>
  <path fill="#ffffff" fill-rule="evenodd" stroke-width="1pt" fill-opacity="0.3" id="path902" d="m110.172531,38.74815c-1.79451,2.579269 1.960342,4.20768 2.413261,6.552731c1.002541,2.946438 1.400955,7.127239 1.587891,10.195118c-0.936844,2.09779 1.559357,7.113373 2.533539,3.469532c0.234406,-4.462662 -0.964073,-10.878952 -1.748672,-15.244579c-0.685417,-2.334961 -2.111893,-4.58049 -4.786018,-4.972801z"/>
  <path fill="#ffffff" fill-rule="evenodd" stroke-width="1pt" fill-opacity="0.3" id="path903" d="m88.031197,49.89064c-1.79451,2.579269 1.960335,4.20768 2.413254,6.552731c1.002541,2.946438 1.400963,7.127239 1.587883,10.195126c-0.936836,2.097786 1.559364,7.113365 2.533546,3.469521c0.234413,-4.462654 -0.964073,-10.878948 -1.748672,-15.244576c-0.68541,-2.334961 -2.1119,-4.58049 -4.786011,-4.972801z"/>
  <path fill="#ffffff" fill-rule="evenodd" stroke-width="1pt" fill-opacity="0.3" id="path904" d="m22.991011,39.168621c-1.79451,2.579269 1.960339,4.20768 2.41325,6.552731c1.002539,2.946438 1.400969,7.127239 1.587889,10.195118c-0.936829,2.09779 1.559361,7.113369 2.533541,3.469532c0.234421,-4.462662 -0.964069,-10.878952 -1.748671,-15.244583c-0.68541,-2.334957 -2.111889,-4.58049 -4.786009,-4.972797z"/>
  <path fill="#ffffff" fill-rule="evenodd" stroke-width="1pt" fill-opacity="0.3" id="path905" d="m50.898319,50.941818c-1.79451,2.579262 1.960342,4.207684 2.413261,6.552731c1.002541,2.946442 1.400959,7.127239 1.587879,10.195118c-0.936829,2.097794 1.559361,7.113373 2.53355,3.469521c0.234409,-4.462654 -0.964081,-10.878937 -1.748669,-15.244568c-0.685421,-2.334961 -2.1119,-4.58049 -4.786022,-4.972801z"/>
  <path fill="#ffffff" fill-rule="evenodd" stroke-width="1pt" fill-opacity="0.8" id="path906" d="m73.774246,95.54361c2.050072,1.670181 7.611084,-2.606819 7.611084,-3.574013c0,-1.383644 0.922562,-1.97612 0.922562,-3.36377c-1.523415,-1.388634 -3.325645,2.73307 -5.074059,2.73307c-1.070557,0.975845 -4.017776,1.660713 -3.459587,4.204712z"/>
  <path fill="#ffffff" fill-rule="evenodd" stroke-width="1pt" fill-opacity="0.8" id="path907" d="m98.452614,91.549133c2.253265,-1.164566 3.492973,-4.055344 4.612785,-6.096832c1.416542,-1.291229 -0.209679,-1.051178 -1.614479,-1.051178c-1.500603,1.367844 -2.987259,1.25135 -4.382133,2.522827c0,1.735046 -0.480415,3.945457 1.383827,4.625183z"/>
  <path fill="#ffffff" fill-rule="evenodd" stroke-width="1pt" fill-opacity="0.8" id="path909" d="m119.210121,85.03183c1.321091,-0.401413 4.151497,-0.64325 4.151497,-2.312592c1.07019,-0.975517 1.153198,-2.439621 1.153198,-3.784241c-1.178802,-2.149071 -3.439453,-0.438805 -4.843414,0.840942c-0.855133,1.558952 -1.370491,4.841499 -0.461281,5.25589z"/>
  <path fill="#ffffff" fill-rule="evenodd" stroke-width="1pt" fill-opacity="0.8" id="path929" d="m130.742065,74.309807c1.859604,-0.75959 2.450653,-1.96109 2.875702,-3.97538c0.524185,-1.66069 0.789688,-2.2453 -0.855865,-1.138275c-1.6465,0.93914 -3.572388,2.032532 -3.452789,3.947449c0.045837,0.83876 0.36705,1.527428 1.432953,1.166206z"/>
  <path fill="#ffffff" fill-rule="evenodd" stroke-width="1pt" fill-opacity="0.8" id="path911" d="m45.175018,91.338898c1.482861,0.397903 3.882233,-0.876144 3.228943,-3.784241c-2.523411,0 -3.228943,1.6735 -3.228943,3.784241z"/>
  <path fill="#ffffff" fill-rule="evenodd" stroke-width="1pt" fill-opacity="0.8" id="path912" d="m29.030291,84.611359c1.615789,1.577362 3.08251,2.025604 4.61278,-0.840942c0,-1.568893 0.28315,-2.522827 -1.614471,-2.522827c-1.544609,0 -2.882248,0.839584 -3.459589,1.89212c0,0.654251 0.07394,0.588951 0.461281,1.471649z"/>
  <path fill="#ffffff" fill-rule="evenodd" stroke-width="1pt" fill-opacity="0.8" id="path913" d="m18.4209,69.474388c1.67881,1.89212 2.76767,3.756882 2.76767,-0.210236c-0.159401,-2.037399 -2.76767,-1.96077 -2.76767,0.210236z"/>
  <path fill="#ff0000" fill-rule="evenodd" stroke="#000000" stroke-width="1.3149115pt" id="path937" d="m20.496651,87.344414c7.16951,-0.31842 8.95504,4.833656 15.558781,6.785515c6.993568,0.845062 14.443939,3.724121 20.756519,5.002548c6.853069,1.302162 15.421127,2.136673 22.98558,1.764893c9.009911,-1.056396 24.543808,-3.390419 30.639999,-5.698662c7.018311,-2.320724 18.017746,-7.787445 22.933884,-11.552696c3.994293,-0.087074 1.656921,5.904312 0.235107,8.757111c0.163132,3.749359 -1.445801,6.902557 -6.347054,5.64138c-5.64138,-1.38028 -4.145882,8.518135 -10.22467,5.051369c-5.337029,-3.159752 -7.692139,2.289825 -7.769798,6.198318c-5.263321,2.141014 -12.299446,6.456512 -17.734413,2.40818c-2.820297,-4.748688 -12.892906,-7.357132 -14.119057,-0.275612c-3.62236,5.094101 -11.443306,3.637894 -13.565559,-1.5401c-4.552719,-2.354401 -10.087219,-1.277481 -14.87587,-2.947464c-2.654232,2.755653 -9.789112,5.190613 -9.908302,-0.49131c-1.778198,-5.671585 -13.430809,-11.219421 -15.818909,-4.466743c-6.934359,0.740669 -5.57761,-5.261391 -4.936619,-10.985039c-0.28199,-1.75238 0.07737,-3.211922 2.19038,-3.651688z"/>
  <path fill="#ffffff" fill-rule="evenodd" stroke-width="1pt" fill-opacity="0.8" id="path938" d="m19.03717,98.980392c1.26914,2.910637 2.74674,2.941719 6.34572,0c0,-2.420586 -4.48065,1.973618 -6.34572,0z"/>
  <path fill="#ffffff" fill-rule="evenodd" stroke-width="1pt" fill-opacity="0.8" id="path939" d="m39.851131,106.341431c1.991508,5.79895 6.612377,1.26915 7.868698,0.25383c0.50766,-4.116493 -5.36261,2.037071 -7.868698,-0.25383z"/>
  <path fill="#ffffff" fill-rule="evenodd" stroke-width="1pt" fill-opacity="0.8" id="path940" d="m66.757004,111.418007c3.553596,4.437881 9.391655,0.971176 9.391655,-0.76149c0,-1.899818 0.342514,-2.284454 -2.030632,-2.284454c-0.504173,4.822746 -6.749916,2.740387 -7.361023,3.045944z"/>
  <path fill="#ffffff" fill-rule="evenodd" stroke-width="1pt" fill-opacity="0.8" id="path941" d="m94.170509,111.671837c3.050461,1.776802 12.400459,-0.507645 9.39167,-1.522964c-0.999741,-0.50766 -9.466583,0.27523 -9.39167,1.522964z"/>
  <path fill="#ffffff" fill-rule="evenodd" stroke-width="1pt" fill-opacity="0.8" id="path942" d="m107.369614,107.86441c1.764908,1.534859 3.92186,-5.584244 2.5383,-5.584244c-2.948883,0.410583 -4.897224,5.11245 -2.5383,5.584244z"/>
  <path fill="#ffffff" fill-rule="evenodd" stroke-width="1pt" fill-opacity="0.8" id="path943" d="m119.807228,102.533997c1.946022,-0.33844 3.86264,-4.822746 2.538292,-4.822746c-1.530479,0 -2.839432,4.069901 -2.538292,4.822746z"/>
  <path fill="#ffffff" fill-rule="evenodd" stroke-width="1pt" fill-opacity="0.8" id="path944" d="m130.975693,96.442108c2.516373,0.021935 1.184357,-3.299782 2.284454,-3.299782c0,-1.201019 0.507675,-3.174286 0.507675,-5.076569c-1.127457,-1.127464 -3.299789,1.153793 -3.299789,2.284454c0,1.729797 -1.881607,6.083694 0.50766,6.091896z"/>
 </g>
</svg>