<?xml version="1.0" encoding="utf-8"?>
<svg viewBox="29.218 2.31 828 94.909" width="828" height="94.909" xmlns="http://www.w3.org/2000/svg">
  <g fill="#fff" transform="matrix(1, 0, 0, 0.909, 11.218031, -129.057877)" style="">
    <path d="M400.6563,212.199c8.1765,8.2778,19.8472,12.2827,31.3433,12.6475c11.4961-0.3643,23.167-4.3696,31.3442-12.6475 c7.0154-7.3053,11.8191-16.5166,19.5137-23.2045c3.897-3.6676,8.5486-6.3214,12.948-9.2953 c-4.7051-0.4348-9.3108-1.6699-14.0383-1.9291c-7.1758-0.0763-14.6182,0.2059-21.2371,3.2942 c-9.814,4.415-16.8145,13.2302-26.6355,17.6149c-0.6255,0.2559-1.2573,0.4956-1.8948,0.7205 c-0.6375-0.2249-1.2688-0.4651-1.8943-0.7205c-9.8218-4.3846-16.8218-13.1993-26.6355-17.6149 c-6.6189-3.0887-14.0613-3.3705-21.2371-3.2942c-4.7275,0.2592-9.3333,1.4943-14.0383,1.9291 c4.4001,2.9739,9.051,5.6277,12.948,9.2953C388.8364,195.6819,393.6401,204.8937,400.6563,212.199z M382.376,182.066 c0.5493-0.0059,1.1001-0.0094,1.6516-0.0094c5.925,0,12.1614,0.3518,17.6255,2.9014c4.4685,2.0105,8.3408,5.054,12.4414,8.2759 c4.3503,3.4187,8.8491,6.9539,14.26,9.3687c0.8145,0.3352,1.511,0.6003,2.2146,0.8486l1.4307,0.5049l1.4307-0.5049 c0.7031-0.2483,1.3994-0.5127,2.0894-0.7947c5.5354-2.4688,10.0337-6.0032,14.384-9.4219 c4.1003-3.2219,7.9744-6.2654,12.3894-8.2518c5.5195-2.5743,11.7559-2.9261,17.6819-2.9261c0.5508,0,1.1006,0.0035,1.6492,0.0094 c0.8574,0.0487,1.7178,0.1348,2.5859,0.2448c-1.4524,1.073-2.8757,2.2225-4.2351,3.4958 c-4.6875,4.0903-8.3074,8.9462-11.8083,13.6432c-2.6106,3.5017-5.0759,6.8097-7.9219,9.7737 c-6.7178,6.7987-17.0217,10.9377-28.2451,11.3246c-11.2246-0.3876-21.5286-4.5266-28.2874-11.3683 c-2.8044-2.921-5.2703-6.2297-7.8811-9.7321c-3.5007-4.6964-7.1199-9.5515-11.8066-13.6404 c-1.3586-1.274-2.7827-2.4236-4.2346-3.4966C380.6584,182.2008,381.5186,182.1147,382.376,182.066z"/>
    <path d="M431.9998,196.6448c5.6272-3.9421,10.0056-9.679,12.387-16.1322c3.5159-9.486,3.0959-21.1532-3.5073-29.2206 c-2.3696-2.9749-5.4507-5.2498-8.8796-6.7727c-3.4285,1.5229-6.5095,3.7975-8.8792,6.7727 c-6.6038,8.0677-7.0229,19.7346-3.5073,29.2206C421.9949,186.9653,426.3728,192.7026,431.9998,196.6448z M422.9014,157.0527 c1.9861-3.876,5.2573-6.9058,9.0984-8.8506c3.8416,1.9448,7.1125,4.9746,9.0989,8.8506c2.7703,4.8857,3.051,10.7004,2.4609,16.1692 c-1.1042,7.7363-5.3916,14.9727-11.5598,19.74c-6.1677-4.7673-10.4551-12.0037-11.5598-19.74 C419.8499,167.7532,420.1311,161.9385,422.9014,157.0527z"/>
    <path d="M533.4954,229.2471c-1.5176-3.6753-5.1089-5.8636-8.3494-7.854c-10.4927-6.0012-23.418-5.7957-34.7036-2.3108 c-6.0469,1.9446-12.1475,4.2476-17.2183,8.1821c15.0605-0.3889,28.5957,7.0839,43.0303,10.0808 c4.4229,0.8159,9.1428,0.6862,13.3291-1.0369c2.6921-1.0602,5.071-4.1025,3.9121-7.0613H533.4954z M517.2913,232.8998 c-12.8794-2.318-25.3474-7.5948-38.623-7.2137c8.3115-3.1571,17.1804-5.231,26.1021-5.1321 c8.9983,0.3508,18.6597,3.218,24.5083,10.462C525.7175,233.2124,521.3555,233.5328,517.2913,232.8998z"/>
    <path d="M340.5847,221.3931c-3.2405,1.9904-6.832,4.1787-8.3496,7.854l0,0c-1.1594,2.9587,1.22,6.0011,3.9119,7.0613 c4.1863,1.723,8.9063,1.8528,13.3291,1.0369c14.4348-2.9969,27.97-10.4697,43.0305-10.0808 c-5.0708-3.9346-11.1714-6.2375-17.2183-8.1821C364.0024,215.5974,351.0771,215.3918,340.5847,221.3931z M348.4392,232.8998 c-4.0647,0.6331-8.4263,0.3126-11.9873-1.8838c5.8486-7.244,15.5103-10.1112,24.5083-10.462 c8.9219-0.0989,17.7908,1.975,26.1021,5.1321C373.7866,225.3049,361.3188,230.5818,348.4392,232.8998z"/>
    <polygon points="431.6887,232.4943 431.6887,232.4938 431.6819,232.4943 &#9;"/>
    <path d="M577.1113,175.7438c-5.833-2.3102-12.2544-2.1351-18.4004-1.6241c-14.7856,2.2649-27.802,10.3632-39.5757,19.1707 c-7.3967,5.658-14.9541,11.1332-23.0137,15.8379c-19.4993,11.4282-41.4473,19.741-64.1213,21.0759 c-22.6746-1.335-44.6223-9.6477-64.1223-21.0759c-8.0596-4.7047-15.6165-10.1799-23.0132-15.8379 c-11.7737-8.8075-24.79-16.9056-39.5762-19.1707c-6.146-0.511-12.5669-0.686-18.3999,1.6241 c-11.1025,3.8665-20.4744,12.7653-24.2339,23.9747c-2.9968,8.861-2.8599,18.7053,0.1831,27.5356 c10.1729,29.6113,42.2954,25.6753,51.5786,7.3584c2.8516-4.6134,3.4692-10.3018,2.5542-15.571 c-1.3418-7.1375-7.0229-13.291-14.1069-15.0146c-5.0098-1.1589-10.5154-0.854-15.0828,1.6475 c-2.9587,1.5557-5.5823,4.1178-6.4744,7.4119c-0.6177,2.0818,0.1602,4.2019,0.77,6.2073 c7.3127-11.9456,17.501-9.8594,22.9148-6.6492c7.7092,4.4454,9.6233,15.6322,4.9182,22.9146 c-4.0874,6.5425-12.1782,9.5085-19.636,9.2953c-5.5129,0.1984-11.1636-1.5789-15.2734-5.3151 c-4.3616-3.9802-6.9465-9.5239-8.3955-15.167c-2.4712-9.0667-2.0588-19.1553,2.3181-27.5815 c5.7493-11.1941,17.9348-18.7051,30.5017-18.9414c11.6213,0.3584,22.625,5.0249,32.4312,11.0111 c9.8826,5.9635,18.7131,13.4894,28.6262,19.3993c19.9565,12.1167,42.147,21.3054,65.5269,23.6846 c1.8865,0.2195,3.7817,0.3828,5.6797,0.5044h0.6228c1.8982-0.1216,3.7935-0.2849,5.6799-0.5044 c23.3799-2.3792,45.5703-11.5679,65.5269-23.6846c9.9131-5.9099,18.7434-13.4358,28.6262-19.3993 c9.8062-5.9862,20.8098-10.6527,32.4312-11.0112c12.5669,0.2365,24.7524,7.7474,30.5017,18.9415 c4.377,8.4263,4.7893,18.5149,2.3181,27.5815c-1.449,5.6431-4.0339,11.1868-8.3955,15.167 c-4.1101,3.7362-9.7605,5.5134-15.2737,5.3151c-7.458,0.2133-15.5483-2.7528-19.6357-9.2953 c-4.7051-7.2823-2.791-18.4691,4.9182-22.9146c5.4138-3.2102,15.6018-5.2964,22.9148,6.6492 c0.6096-2.0054,1.3877-4.1257,0.77-6.2073c-0.8926-3.2941-3.5156-5.8563-6.4744-7.4119 c-4.5674-2.5015-10.073-2.8064-15.0828-1.6475c-7.0845,1.7236-12.7651,7.8772-14.1074,15.0146 c-0.9146,5.2693-0.2971,10.9576,2.5547,15.571c9.2827,18.3169,41.4058,22.2529,51.5786-7.3585 c3.043-8.8302,3.1799-18.6746,0.1831-27.5356C597.5857,188.509,588.2139,179.6102,577.1113,175.7438z"/>
    <path d="M247.7571,207.1022c-3.5615,0.1906-6.6418,3.0197-7.5339,6.4055c-1.228,4.4073,1.2732,9.3639,5.696,10.7367 c5.5515,2.3103,12.1553-2.7987,11.7966-8.6705C257.7539,210.5029,252.7671,206.225,247.7571,207.1022z M249.709,220.485 c-3.2104,0.7778-6.7178-2.9742-5.376-6.0624c0.6863-1.9982,2.738-3.3782,4.8267-3.3927c2.1885,0.442,4.156,2.333,4.377,4.6283 C253.6057,217.8923,251.8745,220.0044,249.709,220.485z"/>
    <path d="M233.9033,213.2637H41.8267c-1.3657,0-2.4829,1.1173-2.4829,2.4829v0.3064c0,1.3655,1.1172,2.4828,2.4829,2.4828h192.0767 c1.3655,0,2.4829-1.1173,2.4829-2.4828v-0.3064C236.3862,214.381,235.2688,213.2637,233.9033,213.2637z"/>
    <path d="M25.8459,207.1022c-3.5615,0.1906-6.6418,3.0197-7.5339,6.4055c-1.228,4.4073,1.2732,9.3639,5.696,10.7367 c5.5515,2.3103,12.1553-2.7987,11.7966-8.6705C35.8428,210.5029,30.856,206.225,25.8459,207.1022z M27.7979,220.485 c-3.2104,0.7778-6.7178-2.9742-5.376-6.0624c0.6863-1.9982,2.738-3.3782,4.8267-3.3927c2.1885,0.442,4.156,2.333,4.377,4.6283 C31.6946,217.8923,29.9634,220.0044,27.7979,220.485z"/>
    <path d="M836.0273,207.1022c-3.5615,0.1906-6.6421,3.0197-7.5342,6.4055c-1.228,4.4073,1.2734,9.3639,5.6963,10.7367 c5.5513,2.3103,12.155-2.7987,11.7966-8.6705C846.0242,210.5029,841.0374,206.225,836.0273,207.1022z M837.979,220.485 c-3.2102,0.7778-6.7178-2.9742-5.3757-6.0624c0.6863-1.9982,2.7378-3.3782,4.8267-3.3927c2.1882,0.442,4.156,2.333,4.377,4.6283 C841.876,217.8923,840.1445,220.0044,837.979,220.485z"/>
    <path d="M822.1733,213.2637H630.0967c-1.3655,0-2.4829,1.1173-2.4829,2.4829v0.3064c0,1.3655,1.1174,2.4828,2.4829,2.4828h192.0767 c1.3657,0,2.4829-1.1173,2.4829-2.4828v-0.3064C824.6563,214.381,823.5391,213.2637,822.1733,213.2637z"/>
    <path d="M614.1162,207.1022c-3.5615,0.1906-6.6421,3.0197-7.5342,6.4055c-1.228,4.4073,1.2734,9.3639,5.6963,10.7367 c5.5513,2.3103,12.155-2.7987,11.7966-8.6705C624.113,210.5029,619.1262,206.225,614.1162,207.1022z M616.0679,220.485 c-3.2102,0.7778-6.7178-2.9742-5.3757-6.0624c0.6863-1.9982,2.7378-3.3782,4.8267-3.3927c2.1882,0.442,4.156,2.333,4.377,4.6283 C619.9648,217.8923,618.2334,220.0044,616.0679,220.485z"/>
  </g>
</svg>